<?xml version="1.0" encoding="utf-8"?><!DOCTYPE svg PUBLIC "-//W3C//DTD SVG 1.1//EN" "http://www.w3.org/Graphics/SVG/1.1/DTD/svg11.dtd"><svg xmlns="http://www.w3.org/2000/svg" xmlns:xlink="http://www.w3.org/1999/xlink"><symbol viewBox="0 0 438.53 438.53" id="arrow-circle-o-right"><path d="M409.133 109.203c-19.608-33.592-46.205-60.189-79.798-79.796C295.736 9.801 259.058 0 219.273 0c-39.781 0-76.47 9.801-110.063 29.407-33.595 19.604-60.192 46.201-79.8 79.796C9.801 142.8 0 179.489 0 219.267c0 39.78 9.804 76.463 29.407 110.062 19.607 33.592 46.204 60.189 79.799 79.798 33.597 19.605 70.283 29.407 110.063 29.407s76.47-9.802 110.065-29.407c33.593-19.602 60.189-46.206 79.795-79.798 19.603-33.596 29.403-70.284 29.403-110.062.001-39.782-9.8-76.472-29.399-110.064zm-55.391 188.005c-13.894 23.791-32.736 42.64-56.527 56.534-23.791 13.894-49.771 20.834-77.945 20.834-28.167 0-54.149-6.94-77.943-20.834-23.791-13.895-42.633-32.743-56.527-56.534-13.897-23.791-20.843-49.772-20.843-77.941 0-28.171 6.949-54.152 20.843-77.943 13.891-23.791 32.738-42.637 56.527-56.53 23.791-13.895 49.772-20.84 77.943-20.84 28.173 0 54.154 6.945 77.945 20.84 23.791 13.894 42.634 32.739 56.527 56.53 13.895 23.791 20.838 49.772 20.838 77.943 0 28.169-6.943 54.15-20.838 77.941z"/><path d="M235.257 121.619c-2.282-1.903-4.568-2.847-6.852-2.847-2.669 0-4.853.854-6.57 2.568-1.706 1.709-2.565 3.899-2.565 6.567v54.818H118.773c-2.473 0-4.615.9-6.423 2.712-1.807 1.807-2.712 3.949-2.712 6.424v54.815c0 2.475.905 4.617 2.712 6.424 1.809 1.811 3.947 2.707 6.423 2.707h100.5v54.823c0 2.474.903 4.616 2.705 6.423 1.815 1.811 3.956 2.707 6.427 2.707 2.666 0 4.856-.852 6.564-2.563l91.364-91.361c1.715-1.711 2.57-3.901 2.57-6.565 0-2.666-.855-4.853-2.573-6.571l-91.073-91.081z"/></symbol><symbol viewBox="0 0 444.82 423.4" id="arrow-down"><path d="M434.252 185.721l-21.409-21.413c-7.419-7.042-16.084-10.564-25.975-10.564-10.095 0-18.657 3.521-25.7 10.564l-83.938 83.939V47.255c0-9.9-3.621-18.464-10.855-25.697-7.234-7.232-15.797-10.85-25.693-10.85h-36.545c-9.897 0-18.464 3.621-25.693 10.85-7.236 7.233-10.85 15.797-10.85 25.697v200.992l-83.939-83.939c-7.042-7.042-15.606-10.564-25.697-10.564-9.896 0-18.559 3.521-25.979 10.564l-21.128 21.413C3.615 192.948 0 201.615 0 211.7c0 10.282 3.619 18.848 10.848 25.698l185.864 186.146c7.045 7.046 15.609 10.567 25.697 10.567 9.897 0 18.558-3.521 25.977-10.567l185.865-186.146c7.043-7.043 10.567-15.608 10.567-25.698.001-9.895-3.523-18.555-10.566-25.979z"/></symbol><symbol viewBox="0 0 1792 1792" id="arrow-left" xmlns="http://www.w3.org/2000/svg"><path d="M491.538 430.615c23.922 0 47.844 8.945 66.109 26.477 18.258 17.625 27.391 40.812 27.391 63.914 0 23.016-9.133 46.203-27.391 63.734L327.913 806.717h1362.875c51.633 0 93.406 40.445 93.406 90.305 0 49.852-41.773 90.211-93.406 90.211H327.733l229.914 222.062c36.523 35.289 36.523 92.406 0 127.648-36.344 35.242-95.695 35.242-132.031 0L36.64 961.256a89.197 89.197 0 0 1-18.992-25.977v-.094l-.188-.094c-1.094-2.141-1.82-4.383-2.734-6.758 0 0-.188 0-.188-.086v-.094-.18c-5.289-14.109-6.938-28.898-4.93-43.281v-.188-.18c.188-.18.188-.18.188-.273v-.274c.359-2.742 1.094-5.391 1.641-8.125 0-.188 0 0 .18-.367 3.836-15.344 11.875-29.398 23.562-41.18l.18-.18.188-.094c0-.094 0-.273.359-.273v-.188l.188-.18 389.523-376.102c18.257-17.527 42.179-26.473 65.921-26.473z"/></symbol><symbol viewBox="0 0 1792 1792" id="arrow-right" xmlns="http://www.w3.org/2000/svg"><path d="M1301.438 1363.375c-23.922 0-47.844-8.945-66.109-26.477-18.258-17.625-27.391-40.812-27.391-63.914 0-23.016 9.133-46.203 27.391-63.734l229.734-221.977H102.188c-51.633 0-93.406-40.445-93.406-90.305 0-49.852 41.773-90.211 93.406-90.211h1363.055l-229.914-222.062c-36.523-35.289-36.523-92.406 0-127.648 36.344-35.242 95.695-35.242 132.031 0l388.977 375.688a89.197 89.197 0 0 1 18.992 25.977v.094l.188.094c1.094 2.141 1.82 4.383 2.734 6.758 0 0 .188 0 .188.086v.274c5.289 14.109 6.938 28.898 4.93 43.281v.368c-.188.18-.188.18-.188.273v.274c-.359 2.742-1.094 5.391-1.641 8.125 0 .188 0 0-.18.367-3.836 15.344-11.875 29.398-23.562 41.18l-.18.18-.188.094c0 .094 0 .273-.359.273v.188l-.188.18-389.523 376.102c-18.258 17.527-42.18 26.472-65.922 26.472z"/></symbol><symbol viewBox="0 0 444.82 420.26" id="arrow-up"><path d="M434.252 208.708L248.387 22.843c-7.042-7.043-15.693-10.564-25.977-10.564-10.467 0-19.036 3.521-25.697 10.564L10.848 208.708C3.615 215.94 0 224.604 0 234.692c0 9.897 3.619 18.459 10.848 25.693l21.411 21.409c6.854 7.231 15.42 10.855 25.697 10.855 10.278 0 18.842-3.624 25.697-10.855l83.939-83.651v200.998c0 9.89 3.567 17.936 10.706 24.126 7.139 6.184 15.752 9.273 25.837 9.273h36.545c10.089 0 18.698-3.09 25.837-9.273 7.139-6.188 10.712-14.236 10.712-24.126V198.144l83.938 83.651c6.848 7.231 15.413 10.855 25.7 10.855 10.082 0 18.747-3.624 25.975-10.855l21.409-21.409c7.043-7.426 10.567-15.988 10.567-25.693.001-9.898-3.523-18.559-10.566-25.985z"/></symbol><symbol viewBox="0 0 14 14" id="arrows" xmlns="http://www.w3.org/2000/svg"><path d="M14 7q0 .203-.148.352l-2 2q-.148.148-.352.148t-.352-.148T11 9V8H8v3h1q.203 0 .352.148t.148.352-.148.352l-2 2Q7.204 14 7 14t-.352-.148l-2-2Q4.5 11.704 4.5 11.5t.148-.352T5 11h1V8H3v1q0 .203-.148.352T2.5 9.5t-.352-.148l-2-2Q0 7.204 0 7t.148-.352l2-2Q2.296 4.5 2.5 4.5t.352.148T3 5v1h3V3H5q-.203 0-.352-.148T4.5 2.5t.148-.352l2-2Q6.796 0 7 0t.352.148l2 2q.148.148.148.352t-.148.352T9 3H8v3h3V5q0-.203.148-.352T11.5 4.5t.352.148l2 2Q14 6.796 14 7z"/></symbol><symbol viewBox="0 0 192 193.1" id="autosupport" xmlns="http://www.w3.org/2000/svg"><defs><style>.agcls-1{fill:#454545}</style></defs><title>autosupport</title><g id="agLayer_2" data-name="Layer 2"><path class="agcls-1" d="M185.6 76.1h-12a3.42 3.42 0 0 1-3.3-2.4 74.2 74.2 0 0 0-5.4-13 3.5 3.5 0 0 1 .6-4.1l8.5-8.5a6.82 6.82 0 0 0 0-9.7l-19.5-19.5a6.82 6.82 0 0 0-9.7 0l-8.5 8.5a3.48 3.48 0 0 1-4.1.6 70.19 70.19 0 0 0-12.9-5.4 3.46 3.46 0 0 1-2.3-3.3v-12a7.53 7.53 0 0 0-7.2-7.3H82.3A7.79 7.79 0 0 0 75 7.4v12a3.33 3.33 0 0 1-2.3 3.3 73.22 73.22 0 0 0-12.9 5.4 3.35 3.35 0 0 1-4-.6L47.4 19a6.82 6.82 0 0 0-9.7 0L18.1 38.5a6.82 6.82 0 0 0 0 9.7l8.5 8.5a3.48 3.48 0 0 1 .6 4.1 71.15 71.15 0 0 0-5.4 13 3.46 3.46 0 0 1-3.3 2.3h-12c-3.8 0-6.5 3.2-6.5 7v27.6a6.17 6.17 0 0 0 6.5 6.4h12a3.71 3.71 0 0 1 3.3 2.7 76.18 76.18 0 0 0 5.4 13.2 3.48 3.48 0 0 1-.6 4.1l-8.5 8.5a6.94 6.94 0 0 0 0 9.8l19.5 19.5a6.82 6.82 0 0 0 9.7 0l8.5-8.5a3.35 3.35 0 0 1 4-.6 73.22 73.22 0 0 0 12.9 5.4 3.33 3.33 0 0 1 2.3 3.3v12c0 3.8 3.5 6.6 7.3 6.6h27.5c3.8 0 7.2-2.8 7.2-6.6v-12a3.46 3.46 0 0 1 2.3-3.3 77.52 77.52 0 0 0 13-5.4 3.35 3.35 0 0 1 4 .6l8.5 8.5a6.82 6.82 0 0 0 9.7 0l19.5-19.5a6.82 6.82 0 0 0 0-9.7l-8.5-8.5a3.48 3.48 0 0 1-.6-4.1 74.08 74.08 0 0 0 5.4-13.3 3.85 3.85 0 0 1 3.3-2.7h12a6.09 6.09 0 0 0 6.4-6.4V83.1c0-3.8-2.6-7-6.4-7zm-89.5 62.1a41.3 41.3 0 1 1 41.3-41.3 41.31 41.31 0 0 1-41.3 41.3z" id="agArtwork"/></g></symbol><symbol id="autosupport-on-demand" viewBox="0 0 224 177" xmlns="http://www.w3.org/2000/svg"><defs><style>.ahcls-1{fill:#231f20}</style></defs><title>autosupport-on-demand</title><path class="ahcls-1" d="M151.87 63.37h-5.34a1.5 1.5 0 0 1-1.46-1.06 34.08 34.08 0 0 0-2.41-5.79 1.52 1.52 0 0 1 .25-1.81l3.78-3.77a3.07 3.07 0 0 0 0-4.33L138 37.94a3.06 3.06 0 0 0-4.33 0l-3.78 3.78a1.53 1.53 0 0 1-1.81.26 33.88 33.88 0 0 0-5.73-2.4 1.48 1.48 0 0 1-1-1.46v-5.33a3.33 3.33 0 0 0-3.19-3.24H105.9a3.38 3.38 0 0 0-3.24 3.24v5.32a1.46 1.46 0 0 1-1 1.46A33.59 33.59 0 0 0 95.89 42a1.5 1.5 0 0 1-1.79-.26L90.35 38A3.07 3.07 0 0 0 86 38l-8.66 8.67a3.07 3.07 0 0 0 0 4.33l3.76 3.76a1.53 1.53 0 0 1 .26 1.81A34.08 34.08 0 0 0 79 62.3a1.5 1.5 0 0 1-1.46 1.06h-5.35a3 3 0 0 0-2.91 3.12v12.27a2.77 2.77 0 0 0 2.91 2.86h5.32A1.63 1.63 0 0 1 79 82.8a34.53 34.53 0 0 0 2.4 5.86 1.56 1.56 0 0 1-.26 1.83l-3.77 3.78a3.08 3.08 0 0 0 0 4.34l8.63 8.67a3.06 3.06 0 0 0 4.33 0l3.76-3.76a1.53 1.53 0 0 1 1.8-.26 33.71 33.71 0 0 0 5.73 2.41 1.46 1.46 0 0 1 1 1.46v5.34a3.13 3.13 0 0 0 3.24 3h12.26a3.08 3.08 0 0 0 3.19-3v-5.34a1.48 1.48 0 0 1 1-1.46 34.14 34.14 0 0 0 5.77-2.41 1.51 1.51 0 0 1 1.79.26l3.76 3.77a3.06 3.06 0 0 0 4.33 0l8.67-8.67a3.07 3.07 0 0 0 0-4.34l-3.78-3.77a1.53 1.53 0 0 1-.26-1.81 34.88 34.88 0 0 0 2.4-5.91 1.64 1.64 0 0 1 1.46-1.2h5.33a2.72 2.72 0 0 0 2.85-2.86V66.49a2.94 2.94 0 0 0-2.76-3.12zM112 88a15.33 15.33 0 1 1 15.33-15.33A15.33 15.33 0 0 1 112 88z"/><path class="ahcls-1" d="M216 0H8a8 8 0 0 0-8 8v128a8 8 0 0 0 8 8h75.5a5.5 5.5 0 0 1 0 11H66a8 8 0 0 0-8 8v6a8 8 0 0 0 8 8h92a8 8 0 0 0 8-8v-6a8 8 0 0 0-8-8h-17.5a5.5 5.5 0 0 1 0-11H216a8 8 0 0 0 8-8V8a8 8 0 0 0-8-8zm-14 118a4 4 0 0 1-4 4H26a4 4 0 0 1-4-4V26a4 4 0 0 1 4-4h172a4 4 0 0 1 4 4z"/></symbol><symbol viewBox="0 0 1792 1792" id="bars" xmlns="http://www.w3.org/2000/svg"><path d="M1664 1344v128q0 26-19 45t-45 19H192q-26 0-45-19t-19-45v-128q0-26 19-45t45-19h1408q26 0 45 19t19 45zm0-512v128q0 26-19 45t-45 19H192q-26 0-45-19t-19-45V832q0-26 19-45t45-19h1408q26 0 45 19t19 45zm0-512v128q0 26-19 45t-45 19H192q-26 0-45-19t-19-45V320q0-26 19-45t45-19h1408q26 0 45 19t19 45z"/></symbol><symbol viewBox="0 0 1792 1792" id="binoculars"><path d="M704 320v768q0 26-19 45t-45 19v576q0 26-19 45t-45 19H64q-26 0-45-19t-19-45v-512l249-873q7-23 31-23h424zm320 0v704H768V320h256zm768 896v512q0 26-19 45t-45 19h-512q-26 0-45-19t-19-45v-576q-26 0-45-19t-19-45V320h424q24 0 31 23zM736 32v224H384V32q0-14 9-23t23-9h288q14 0 23 9t9 23zm672 0v224h-352V32q0-14 9-23t23-9h288q14 0 23 9t9 23z"/></symbol><symbol viewBox="0 0 15.5 15.6" id="blog"><path d="M11.4 4.6zM15.8 8.3C15.4 4 12 .6 7.7.2c-.4 0-.7.3-.7.7v.3c0 .3.3.6.6.6 3.5.3 6.4 3.1 6.6 6.6 0 .3.3.6.6.6h.3c.4 0 .7-.3.7-.7z"/><path d="M7 4.1v.4c0 .3.2.6.5.6 1.7.2 3.1 1.6 3.3 3.3 0 .3.3.5.6.5h.4c.4 0 .7-.3.6-.7-.3-2.5-2.3-4.5-4.8-4.8-.3 0-.6.3-.6.7zM8.7 11.5c.1-.2.2-.5.3-.7.3-.5 1-2-.4-3.4S5.7 6.7 5.1 7l-.6.3c-.5.1-1 .1-1.3.1-.2 0-.3.2-.3.4-.2 3.4-1.9 5.4-2.5 6-.1.1-.1.3 0 .4l.1.1c.1.1.3.1.4 0l3.8-3.8c.1-.1.1-.2.1-.2-.1-.3 0-.6.2-.9.5-.4 1.2-.4 1.6 0 .4.4.4 1.1 0 1.6-.3.3-.6.4-.9.3-.1 0-.2 0-.2.1l-3.8 3.8c-.1.1-.1.3 0 .4l.1.1c.1.1.3.1.4 0 .6-.6 2.6-2.4 6-2.5.2 0 .4-.2.4-.4 0-.3 0-.8.1-1.3z"/></symbol><symbol viewBox="0 0 478.59 438.53" id="book"><path d="M468.083 118.385c-3.99-5.33-9.61-9.419-16.854-12.275.387 6.665-.086 12.09-1.42 16.281l-85.65 281.789c-1.526 4.948-4.859 8.897-9.992 11.848-5.141 2.953-10.469 4.428-15.989 4.428H74.66c-22.84 0-36.542-6.652-41.112-19.985-1.903-5.14-1.807-9.229.288-12.275 2.092-2.857 5.708-4.288 10.85-4.288h248.102c17.702 0 29.93-3.285 36.688-9.852 6.763-6.567 13.565-21.177 20.413-43.824l78.228-258.669c4.186-14.084 2.474-26.457-5.141-37.113s-18.462-15.987-32.548-15.987H173.163c-2.474 0-7.329.854-14.562 2.568l.284-.859c-5.33-1.14-9.851-1.662-13.562-1.571-3.71.099-7.137 1.192-10.277 3.289-3.14 2.094-5.664 4.328-7.566 6.706-1.903 2.38-3.761 5.426-5.568 9.136-1.805 3.715-3.33 7.142-4.567 10.282a201.023 201.023 0 0 1-4.281 9.998c-1.62 3.521-3.186 6.423-4.71 8.706-1.143 1.523-2.758 3.521-4.854 5.996-2.091 2.474-3.805 4.664-5.137 6.567-1.331 1.903-2.19 3.616-2.568 5.14-.378 1.711-.19 4.233.571 7.566.76 3.328 1.047 5.753.854 7.277-.76 7.232-3.378 16.414-7.849 27.552-4.471 11.136-8.52 19.18-12.135 24.126-.761.95-2.853 3.092-6.28 6.424-3.427 3.33-5.52 6.23-6.279 8.704-.762.951-.81 3.617-.144 7.994.666 4.38.907 7.423.715 9.136-.765 6.473-3.14 15.037-7.139 25.697-3.999 10.657-7.994 19.414-11.993 26.265-.569 1.141-2.185 3.328-4.853 6.567-2.662 3.237-4.283 5.902-4.853 7.99-.38 1.523-.33 4.188.144 7.994.473 3.806.426 6.66-.144 8.562-1.521 7.228-4.377 15.94-8.565 26.125-4.187 10.178-8.47 18.896-12.851 26.121-1.138 1.906-2.712 4.145-4.708 6.711-1.999 2.566-3.568 4.805-4.711 6.707-1.141 1.903-1.903 3.901-2.284 5.996-.19 1.143.098 2.998.859 5.571.76 2.566 1.047 4.612.854 6.14-.192 2.662-.57 6.187-1.141 10.567-.572 4.373-.859 6.939-.859 7.699-4.187 11.424-3.999 23.511.572 36.269 5.33 14.838 14.797 27.36 28.406 37.541 13.61 10.185 27.74 15.27 42.398 15.27h263.521c12.367 0 24.026-4.141 34.971-12.416 10.944-8.281 18.227-18.507 21.837-30.696l78.511-258.662c4.192-13.708 2.481-25.984-5.137-36.833zm-303.773.571l5.997-18.274c.76-2.474 2.329-4.615 4.709-6.423 2.38-1.805 4.808-2.712 7.282-2.712h173.589c2.663 0 4.565.903 5.708 2.712 1.14 1.809 1.335 3.949.575 6.423l-6.002 18.274c-.764 2.475-2.327 4.611-4.713 6.424-2.382 1.805-4.805 2.708-7.278 2.708H170.593c-2.666 0-4.568-.9-5.711-2.708-1.142-1.813-1.332-3.949-.572-6.424zm-23.695 73.089l5.996-18.271c.76-2.474 2.331-4.615 4.709-6.423 2.38-1.809 4.805-2.712 7.282-2.712h173.583c2.666 0 4.572.9 5.712 2.712 1.14 1.809 1.331 3.949.568 6.423l-5.996 18.271c-.759 2.474-2.33 4.617-4.708 6.423-2.383 1.809-4.805 2.712-7.283 2.712H146.895c-2.664 0-4.567-.9-5.708-2.712-1.144-1.806-1.333-3.949-.572-6.423z"/></symbol><symbol viewBox="0 0 218.63 190.52" id="branch-office" xmlns="http://www.w3.org/2000/svg"><title>branch-office</title><path d="M218.63 165.19V25.3a8 8 0 0 0-5.21-7.5L166.61.78a13 13 0 0 0-5.74-.72L9 15.29c-5 .5-9 4.59-9 9.15v142.47c0 4.56 4 8.63 9 9.1l55.56 5.28a6.42 6.42 0 0 0 7.17-6.5v-40.64a3.44 3.44 0 0 1 3.59-3.46l22.73.84a3.82 3.82 0 0 1 3.59 3.84v42a8.2 8.2 0 0 0 7.17 8.1l52.36 5a12 12 0 0 0 5.24-.67l47.05-17.11a8 8 0 0 0 5.17-7.5zm-167.56-9.66a3.26 3.26 0 0 1-3.59 3.25l-22.73-1.61a3.81 3.81 0 0 1-3.59-3.64v-21.45a3.34 3.34 0 0 1 3.59-3.25l22.73.84a3.71 3.71 0 0 1 3.59 3.64zm0-48.44a3.48 3.48 0 0 1-3.59 3.45l-22.73-.34a3.55 3.55 0 0 1-3.59-3.44V85.31a3.57 3.57 0 0 1 3.59-3.45l22.73-.43a3.47 3.47 0 0 1 3.59 3.44zm0-48.44a3.73 3.73 0 0 1-3.59 3.65l-22.73.94A3.32 3.32 0 0 1 21.17 60V38.55a3.83 3.83 0 0 1 3.59-3.65l22.73-1.7a3.25 3.25 0 0 1 3.59 3.24zm50.52 49a3.59 3.59 0 0 1-3.59 3.64L75.28 111a3.64 3.64 0 0 1-3.59-3.64v-22.8a3.68 3.68 0 0 1 3.59-3.66L98 80.47a3.57 3.57 0 0 1 3.59 3.64zm0-51.27A3.84 3.84 0 0 1 98 60.23l-22.73.94a3.43 3.43 0 0 1-3.59-3.44V35a3.94 3.94 0 0 1 3.58-3.86L98 29.4a3.34 3.34 0 0 1 3.59 3.44zm50.52 105.9a3.46 3.46 0 0 1-3.59 3.66l-22.73-1.61a4 4 0 0 1-3.59-4v-24.11a3.53 3.53 0 0 1 3.59-3.66l22.73.84a3.93 3.93 0 0 1 3.59 4zm0-54.09a3.7 3.7 0 0 1-3.59 3.86l-22.73-.34a3.76 3.76 0 0 1-3.59-3.85V83.8a3.78 3.78 0 0 1 3.59-3.86l22.73-.43a3.68 3.68 0 0 1 3.59 3.85zm0-54.09a4 4 0 0 1-3.59 4.06l-22.73.94a3.52 3.52 0 0 1-3.59-3.65V31.39a4 4 0 0 1 3.59-4.06l22.73-1.7a3.44 3.44 0 0 1 3.59 3.65z"/></symbol><symbol viewBox="0 0 14 14" id="bullhorn" xmlns="http://www.w3.org/2000/svg"><path d="M13 5q.414 0 .707.293T14 6t-.293.707T13 7v3q0 .406-.297.703T12 11Q8.742 8.289 5.656 8.031q-.453.148-.711.516t-.242.785.312.723q-.156.258-.18.512t.047.453.262.43.375.391.48.395q-.227.453-.871.648t-1.316.09-1.031-.434q-.055-.18-.23-.684t-.25-.738-.18-.695-.117-.789.027-.77.172-.863H1.25q-.516 0-.883-.367T0 6.751v-1.5q0-.516.367-.883t.883-.367H5q3.398 0 7-3 .406 0 .703.297t.297.703v3zm-1 4.719V2.266q-3.078 2.359-6 2.68v2.109q2.945.328 6 2.664z"/></symbol><symbol viewBox="0 0 475.08 511.64" id="calendar"><path d="M482.513 83.942c-7.225-7.233-15.797-10.85-25.694-10.85h-36.541v-27.41c0-12.56-4.477-23.315-13.422-32.261C397.906 4.475 387.157 0 374.591 0h-18.268c-12.565 0-23.318 4.475-32.264 13.422-8.949 8.945-13.422 19.701-13.422 32.261v27.41h-109.63v-27.41c0-12.56-4.475-23.315-13.422-32.261C178.64 4.475 167.886 0 155.321 0H137.05c-12.562 0-23.317 4.475-32.264 13.422-8.945 8.945-13.421 19.701-13.421 32.261v27.41H54.823c-9.9 0-18.464 3.617-25.697 10.85-7.233 7.232-10.85 15.8-10.85 25.697v365.453c0 9.89 3.617 18.456 10.85 25.693 7.232 7.231 15.796 10.849 25.697 10.849h401.989c9.897 0 18.47-3.617 25.694-10.849 7.234-7.234 10.852-15.804 10.852-25.693V109.639c-.001-9.9-3.615-18.464-10.845-25.697zM137.047 475.088H54.823v-82.23h82.224v82.23zm0-100.498H54.823v-91.358h82.224v91.358zm0-109.639H54.823v-82.223h82.224v82.223zm-6.42-130.618c-1.809-1.809-2.712-3.946-2.712-6.423V45.686c0-2.474.903-4.617 2.712-6.423 1.809-1.809 3.946-2.712 6.423-2.712h18.271c2.474 0 4.617.903 6.423 2.712 1.809 1.807 2.714 3.949 2.714 6.423v82.224c0 2.478-.909 4.615-2.714 6.423-1.807 1.809-3.946 2.712-6.423 2.712H137.05c-2.474.001-4.614-.903-6.423-2.712zm116.056 340.755h-91.365v-82.23h91.365v82.23zm0-100.498h-91.365v-91.358h91.365v91.358zm0-109.639h-91.365v-82.223h91.365v82.223zm109.64 210.137h-91.364v-82.23h91.364v82.23zm0-100.498h-91.364v-91.358h91.364v91.358zm0-109.639h-91.364v-82.223h91.364v82.223zm-6.427-130.618c-1.807-1.809-2.707-3.946-2.707-6.423V45.686c0-2.474.9-4.617 2.707-6.423 1.808-1.809 3.949-2.712 6.427-2.712h18.268c2.478 0 4.617.903 6.427 2.712 1.808 1.807 2.707 3.949 2.707 6.423v82.224c0 2.478-.903 4.615-2.707 6.423-1.807 1.809-3.949 2.712-6.427 2.712h-18.268c-2.477.001-4.626-.903-6.427-2.712zm106.916 340.755h-82.228v-82.23h82.228v82.23zm0-100.498h-82.228v-91.358h82.228v91.358zm0-109.639h-82.228v-82.223h82.228v82.223z"/></symbol><symbol viewBox="0 0 1792 1792" id="camera" xmlns="http://www.w3.org/2000/svg"><path d="M22.447 458.724h1166.07v874.553H22.447zM1188.518 750.241h583.035v291.518h-583.035z"/><path d="M1480.035 604.482h291.518v583.035h-291.518z"/><path d="M1625.794 458.724h145.759v874.553h-145.759z"/></symbol><symbol viewBox="0 0 199.79 188.09" id="cdot-cluster" xmlns="http://www.w3.org/2000/svg"><title>cdot-cluster</title><path d="M23.94 34L5.42 28.4a4.2 4.2 0 0 0-5.42 4v123.27a4.2 4.2 0 0 0 5.42 4l18.53-5.6a4.2 4.2 0 0 0 3-4V38a4.2 4.2 0 0 0-3.01-4zM195.53 26.66L108.24.26A6 6 0 0 0 100.5 6v176.09a6 6 0 0 0 7.74 5.74l87.29-26.4a6 6 0 0 0 4.26-5.74V32.4a6 6 0 0 0-4.26-5.74zM76.65 21.13l-22.5-6.8a5.1 5.1 0 0 0-6.58 4.88v149.67a5.1 5.1 0 0 0 6.58 4.88l22.5-6.8a5.1 5.1 0 0 0 3.62-4.88V26a5.1 5.1 0 0 0-3.62-4.87z"/></symbol><symbol viewBox="0 0 1792 1792" id="check" xmlns="http://www.w3.org/2000/svg"><path d="M.163 796.224c205.999 41.949 483.433 104.1 684.055 231.82 235.485-308.795 646.098-603.741 1106.479-841.019-437.249 421.608-806.89 905.938-1052.312 1386.927C540.613 1299.206 332.416 1062.255.163 796.224z"/></symbol><symbol viewBox="0 0 444.82 280.37" id="chevron-down"><path d="M434.252 114.203l-21.409-21.416c-7.419-7.04-16.084-10.561-25.975-10.561-10.095 0-18.657 3.521-25.7 10.561L222.41 231.549 83.653 92.791c-7.042-7.04-15.606-10.561-25.697-10.561-9.896 0-18.559 3.521-25.979 10.561l-21.128 21.416C3.615 121.436 0 130.099 0 140.188c0 10.277 3.619 18.842 10.848 25.693l185.864 185.865c6.855 7.23 15.416 10.848 25.697 10.848 10.088 0 18.75-3.617 25.977-10.848l185.865-185.865c7.043-7.044 10.567-15.608 10.567-25.693.001-9.901-3.523-18.559-10.566-25.985z"/></symbol><symbol viewBox="12.789 12.02 2.419 3.959" id="chevron-left" xmlns="http://www.w3.org/2000/svg"><path d="M12.92 13.692a.425.425 0 0 1 .616 0l1.54 1.54a.424.424 0 0 1 0 .615.424.424 0 0 1-.616 0l-1.54-1.54a.426.426 0 0 1 0-.615z"/><path d="M12.92 14.307a.425.425 0 0 0 .616 0l1.54-1.54a.424.424 0 0 0 0-.615.425.425 0 0 0-.616 0l-1.54 1.54a.426.426 0 0 0 0 .615z"/></symbol><symbol viewBox="12.789 12.02 2.419 3.959" id="chevron-right" xmlns="http://www.w3.org/2000/svg"><path d="M15.076 14.308a.425.425 0 0 1-.616 0l-1.54-1.54a.424.424 0 0 1 0-.615.424.424 0 0 1 .615 0l1.54 1.54a.423.423 0 0 1 .001.615z"/><path d="M15.076 13.692a.425.425 0 0 0-.616 0l-1.54 1.54a.424.424 0 0 0 0 .615.424.424 0 0 0 .615 0l1.54-1.54a.423.423 0 0 0 .001-.615z"/></symbol><symbol viewBox="12.021 12.791 3.96 2.419" id="chevron-up" xmlns="http://www.w3.org/2000/svg"><path d="M14.308 12.922a.425.425 0 0 1 0 .616l-1.54 1.54a.424.424 0 0 1-.615 0 .424.424 0 0 1 0-.616l1.54-1.54a.426.426 0 0 1 .615 0z"/><path d="M13.693 12.922a.425.425 0 0 0 0 .616l1.541 1.54a.424.424 0 0 0 .615 0 .425.425 0 0 0 0-.616l-1.541-1.54a.426.426 0 0 0-.615 0z"/></symbol><symbol viewBox="0 0 1792 1792" id="circle" xmlns="http://www.w3.org/2000/svg"><path d="M897.005 5.119c492.07 0 890.872 398.802 890.872 890.886 0 492.07-398.802 890.872-890.872 890.872-491.997 0-890.886-398.802-890.886-890.872 0-492.084 398.889-890.886 890.886-890.886z"/></symbol><symbol viewBox="0 0 1792 1792" id="circle-check" xmlns="http://www.w3.org/2000/svg"><path d="M1602.837 379.763c-353.591 365.762-652.098 772.407-858.325 1176.581-188.008-261.182-385.926-486.434-701.775-739.331 195.829 39.878 459.565 98.961 650.282 220.375 193.033-253.125 509.856-496.46 874.055-703.3-160.996-192.315-402.845-314.63-673.27-314.63-484.718 0-877.659 392.941-877.659 877.659s392.941 877.66 877.659 877.66 877.659-392.942 877.659-877.66c0-193.452-62.593-372.284-168.626-517.354z"/></symbol><symbol viewBox="0 0 1792 1792" id="circle-check-alt" xmlns="http://www.w3.org/2000/svg"><path d="M490.653 775.491l254.519 254.465 565.616-565.402 144.664 144.619-719.302 719.248-399.191-399.192 153.694-153.738zM896.206 27C416.001 27 26.719 416.283 26.719 896.487c0 480.205 389.282 869.487 869.487 869.487s869.487-389.282 869.487-869.487C1765.693 416.283 1376.411 27 896.206 27z"/></symbol><symbol viewBox="0 0 1792 1792" id="circle-exclamation" xmlns="http://www.w3.org/2000/svg"><path d="M895.5 15.564c-485.976 0-879.936 393.96-879.936 879.936 0 485.975 393.96 879.936 879.936 879.936 485.975 0 879.936-393.961 879.936-879.936 0-485.976-393.961-879.936-879.936-879.936zm109.992 1429.896H785.508v-329.976h219.984v329.976zm0-439.968H785.508V345.54h219.984v659.952z"/></symbol><symbol viewBox="0 0 1792 1792" id="circle-info" xmlns="http://www.w3.org/2000/svg"><path d="M895.5 1775.436c485.975 0 879.936-393.961 879.936-879.936S1381.475 15.564 895.5 15.564 15.564 409.525 15.564 895.5s393.961 879.936 879.936 879.936zM785.507 435.54h219.985l-.001 239.976H785.507V435.54zm0 349.967h219.984v609.952H785.507V785.507z"/></symbol><symbol viewBox="0 0 1792 1792" id="circle-minus" xmlns="http://www.w3.org/2000/svg"><path d="M1775.881 896c0 485.945-393.936 879.881-879.881 879.881-485.944 0-879.88-393.936-879.88-879.881C16.12 410.056 410.056 16.12 896 16.12c485.945 0 879.881 393.936 879.881 879.88zm-377.092-125.697H393.211v251.395h1005.578V770.303z"/></symbol><symbol viewBox="0 0 896 1024" id="clipboard" xmlns="http://www.w3.org/2000/svg"><path d="M128 768h256v64H128v-64zm320-384H128v64h320v-64zm128 192V448L384 640l192 192V704h320V576H576zm-288-64H128v64h160v-64zM128 704h160v-64H128v64zm576 64h64v128c-1 18-7 33-19 45s-27 18-45 19H64c-35 0-64-29-64-64V192c0-35 29-64 64-64h192C256 57 313 0 384 0s128 57 128 128h192c35 0 64 29 64 64v320h-64V320H64v576h640V768zM128 256h512c0-35-29-64-64-64h-64c-35 0-64-29-64-64s-29-64-64-64-64 29-64 64-29 64-64 64h-64c-35 0-64 29-64 64z"/></symbol><symbol viewBox="0 0 1792 1792" id="close" xmlns="http://www.w3.org/2000/svg"><path d="M1786.27 1598.959l-187.667 187.465-701.462-701.469-701.058 701.469L8.422 1598.959l701.462-701.67L8.422 195.931 196.083 8.264l701.058 701.364L1598.603 8.264l187.667 187.667-701.469 701.358 701.469 701.67z"/></symbol><symbol viewBox="0 0 511.63 438.91" id="comment"><path d="M477.371 127.44c-22.843-28.074-53.871-50.249-93.076-66.523-39.204-16.272-82.035-24.41-128.478-24.41-34.643 0-67.762 4.805-99.357 14.417-31.595 9.611-58.812 22.602-81.653 38.97-22.845 16.37-41.018 35.832-54.534 58.385C6.757 170.833 0 194.484 0 219.228c0 28.549 8.61 55.3 25.837 80.234 17.227 24.931 40.778 45.871 70.664 62.811-2.096 7.611-4.57 14.846-7.426 21.693-2.855 6.852-5.424 12.474-7.708 16.851-2.286 4.377-5.376 9.233-9.281 14.562-3.899 5.328-6.849 9.089-8.848 11.275-1.997 2.19-5.28 5.812-9.851 10.849-4.565 5.048-7.517 8.329-8.848 9.855-.193.089-.953.952-2.285 2.567-1.331 1.615-1.999 2.423-1.999 2.423l-1.713 2.566c-.953 1.431-1.381 2.334-1.287 2.707.096.373-.094 1.331-.57 2.851-.477 1.526-.428 2.669.142 3.433v.284c.765 3.429 2.43 6.187 4.998 8.277 2.568 2.092 5.474 2.95 8.708 2.563 12.375-1.522 23.223-3.606 32.548-6.276 49.87-12.758 93.649-35.782 131.334-69.097 14.272 1.522 28.072 2.286 41.396 2.286 46.442 0 89.271-8.138 128.479-24.417 39.208-16.272 70.233-38.448 93.072-66.517 22.843-28.062 34.263-58.663 34.263-91.781.001-33.119-11.418-63.718-34.254-91.787z"/></symbol><symbol viewBox="0 0 511.63 402.18" id="comments"><path d="M301.927 327.605c30.926-13.038 55.34-30.785 73.23-53.248 17.888-22.458 26.833-46.915 26.833-73.372 0-26.458-8.945-50.917-26.84-73.376-17.888-22.459-42.298-40.208-73.228-53.249-30.93-13.039-64.571-19.556-100.928-19.556-36.354 0-69.995 6.521-100.927 19.556-30.929 13.04-55.34 30.789-73.229 53.249C8.947 150.072 0 174.527 0 200.986c0 22.648 6.767 43.975 20.28 63.96 13.512 19.981 32.071 36.829 55.671 50.531-1.902 4.572-3.853 8.754-5.852 12.566a72.375 72.375 0 0 1-7.139 10.991 984.53 984.53 0 0 0-6.423 8.275c-1.523 1.998-3.997 4.812-7.425 8.422-3.427 3.617-5.617 5.996-6.567 7.135 0-.191-.381.24-1.143 1.287-.763 1.047-1.191 1.52-1.285 1.431-.096-.103-.477.373-1.143 1.42l-1 1.571-.715 1.423a6.114 6.114 0 0 0-.57 1.712c-.096.567-.144 1.19-.144 1.854s.094 1.28.288 1.854c.381 2.471 1.475 4.466 3.283 5.996 1.807 1.52 3.756 2.279 5.852 2.279h.857c9.515-1.332 17.701-2.854 24.552-4.569 29.312-7.61 55.771-19.797 79.372-36.545 17.129 3.046 33.879 4.568 50.247 4.568 36.357.013 70.002-6.502 100.931-19.542z"/><path d="M491.354 338.166c13.518-19.889 20.272-41.247 20.272-64.09 0-23.414-7.146-45.316-21.416-65.68-14.277-20.362-33.694-37.305-58.245-50.819 4.374 14.274 6.563 28.739 6.563 43.398 0 25.503-6.368 49.676-19.129 72.519-12.752 22.836-31.025 43.01-54.816 60.524-22.08 15.988-47.205 28.261-75.377 36.829-28.164 8.562-57.573 12.848-88.218 12.848-5.708 0-14.084-.377-25.122-1.137 38.256 25.119 83.177 37.685 134.756 37.685 16.371 0 33.119-1.526 50.251-4.571 23.6 16.755 50.06 28.931 79.37 36.549 6.852 1.718 15.037 3.237 24.554 4.568 2.283.191 4.381-.476 6.283-1.999 1.903-1.522 3.142-3.61 3.71-6.272-.089-1.143 0-1.77.287-1.861.281-.09.233-.712-.144-1.852-.376-1.144-.568-1.715-.568-1.715l-.712-1.424a13.68 13.68 0 0 0-.999-1.567c-.476-.66-.855-1.143-1.143-1.427-.28-.284-.705-.763-1.28-1.424-.568-.66-.951-1.092-1.143-1.283-.951-1.143-3.139-3.521-6.564-7.139-3.429-3.613-5.899-6.42-7.422-8.418a867.888 867.888 0 0 0-6.424-8.282 72.209 72.209 0 0 1-7.139-10.991c-1.998-3.806-3.949-7.995-5.852-12.56 23.602-13.716 42.156-30.513 55.667-50.409z"/></symbol><symbol viewBox="0 0 167 173.97" id="comparison" xmlns="http://www.w3.org/2000/svg"><title>comparison</title><path d="M8 60.64h104a8 8 0 0 1 8 8v13.45c0 3.15 4.21 4.68 6.71 2.49L166 45.3a3.36 3.36 0 0 0 1-2.37 3.41 3.41 0 0 0-1-2.37L126.57 1c-2.5-2.18-6.57-.57-6.57 2.59v12.18a8 8 0 0 1-8 8H8a8 8 0 0 0-8 8v20.87a8 8 0 0 0 8 8zM159 113.32H55a8 8 0 0 1-8-8V91.88c0-3.15-4.21-4.68-6.71-2.49L1 128.67A3.36 3.36 0 0 0 0 131a3.41 3.41 0 0 0 1 2.37L40.43 173c2.5 2.19 6.57.58 6.57-2.58V158.2a8 8 0 0 1 8-8h104a8 8 0 0 0 8-8v-20.88a8 8 0 0 0-8-8z"/></symbol><symbol viewBox="0 0 25 32" id="data-management" xmlns="http://www.w3.org/2000/svg"><path d="M10.659 21.171a.448.448 0 0 0-.762.33v2.147a.564.564 0 0 1-.795.52c-3.143-1.37-5.345-4.491-5.345-8.116a8.84 8.84 0 0 1 3.676-7.181.574.574 0 0 0 .158-.769L6.205 5.884a.57.57 0 0 0-.808-.168C2.133 7.999.001 11.781.001 16.053c0 5.863 3.996 10.801 9.483 12.209.25.064.414.292.414.55v2.73c0 .403.467.61.759.33l4.596-5.035a.457.457 0 0 0-.004-.606l-4.589-5.059zM15.743 3.839a.582.582 0 0 1-.441-.55V.554c0-.403-.457-.61-.748-.33L9.963 5.26a.457.457 0 0 0 .007.606l4.58 5.059a.442.442 0 0 0 .752-.33V8.452c0-.414.443-.686.822-.52 3.142 1.369 5.348 4.493 5.348 8.12a8.839 8.839 0 0 1-3.742 7.228.573.573 0 0 0-.158.773l1.394 2.218a.57.57 0 0 0 .805.169c3.306-2.278 5.469-6.084 5.469-10.388 0-5.865-4.011-10.807-9.498-12.213z"/><path d="M7.621 16.164c0 1.615.991 3.037 2.765 3.037s2.782-1.439 2.782-3.054v-.017c0-1.615-.991-3.037-2.765-3.037s-2.782 1.439-2.782 3.054v.017zm1.849-.033c0-.803.389-1.339.916-1.339s.933.552.933 1.355v.017c0 .803-.389 1.339-.916 1.339s-.933-.552-.933-1.356v-.017zM16.566 13.102h-.917c-.04 0-.081.038-.119.049l-1.266.365a.46.46 0 0 0-.317.552l.152.607a.443.443 0 0 0 .523.332c.28-.06.537.156.537.442v3.225c0 .248.214.402.463.402h.944c.248 0 .442-.154.442-.402v-5.056c0-.248-.194-.515-.442-.515z"/></symbol><symbol viewBox="0 0 128.7 110.77" id="discussions-o" xmlns="http://www.w3.org/2000/svg"><defs><style>.bicls-1{fill:#bcbec0}</style></defs><title>discussions-o</title><g id="biLayer_2" data-name="Layer 2"><path class="bicls-1" d="M128.67 34.52a51.4 51.4 0 0 0-.16-6.89 4.79 4.79 0 0 0-5-3.49H84.45V4.6A4.27 4.27 0 0 0 79.88 0C55.76 0 31.64.07 7.5 0 5.43.06 2.92-.33 1.36 1.39-.37 2.92.07 5.41 0 7.47Q.07 31 0 54.59c.06 2.06-.39 4.56 1.34 6.1 2.09 2.22 5.43.83 8 1.79A4.57 4.57 0 0 1 12 66.63c.26 5.18-.06 10.37.11 15.56-.06 2.41 2.28 4.23 4.55 4.3A5.88 5.88 0 0 0 20.62 85c7.85-6.1 15.76-12.12 23.63-18.19v13.66c0 1.56-.1 3.4 1.19 4.55 1 1.17 2.63 1.19 4 1.21h25.85a7 7 0 0 1 4.9 1.37l25.24 19.55a38.67 38.67 0 0 0 4.3 3.17c2.6 1.47 6.56-.24 6.8-3.34.23-5.21-.1-10.43.11-15.64a5.3 5.3 0 0 1 1.64-4c2.57-2.22 6.64.07 9.06-2.43a4.59 4.59 0 0 0 1.35-3.91c-.05-15.48-.01-31-.02-46.48zM48.8 24.14a4.15 4.15 0 0 0-4.51 4c-.16 7.51.14 15-.11 22.52.06 1.37-1.19 2.15-2.11 2.92-4.8 3.6-9.49 7.35-14.27 11-1.33 1.35-4 .6-4.09-1.36-.39-4 .13-8-.19-12a1.88 1.88 0 0 0-1.17-1.58c-2.71-.5-5.54.28-8.2-.49-1.63-.75-1.41-2.78-1.49-4.27.05-9.57 0-19.15 0-28.72.09-1.11 0-2.76 1.31-3.17a12.09 12.09 0 0 1 2.73-.27h46.52a64.41 64.41 0 0 1 6.86.11 1.92 1.92 0 0 1 1.68 2.13 38.82 38.82 0 0 1-.13 7.41c-.19 1.53-1.92 1.83-3.18 1.82-6.55.01-13.11-.08-19.65-.05zm22.89 23a2.51 2.51 0 0 1-2.69 2.2c-3.08.13-6.18.12-9.27 0-1.13 0-2.49-.49-2.66-1.77a45.36 45.36 0 0 1-.14-8c0-1.13.52-2.46 1.78-2.62 3-.4 6-.12 9.08-.2 1.42 0 3.61 0 3.84 1.89a40.88 40.88 0 0 1 .05 8.49zm44.18 24.65a1.8 1.8 0 0 1-1.57 1.58c-2.49.41-5 0-7.52.23a1.63 1.63 0 0 0-1.6 1.6c-.29 4 .18 8.07-.16 12.1a2.37 2.37 0 0 1-2.73 2.27 13.7 13.7 0 0 1-2.76-1.82c-5-4-10.11-7.9-15.11-11.91-1.35-1-2.69-2.48-4.55-2.3H60.93c-1.3-.09-3.2.08-3.76-1.45a27.8 27.8 0 0 1-.29-6.66c.09-1 .07-2.32 1.08-2.93a7 7 0 0 1 2.93-.5h19a4.16 4.16 0 0 0 4.55-4c.13-6 0-12 0-18 0-1.28.32-3 1.87-3.2 6.62-.42 13.28 0 19.92-.17 2.77.09 5.59-.31 8.31.27 1.54.53 1.42 2.42 1.49 3.74v24.68a45.82 45.82 0 0 1-.16 6.46z" id="biLayer_1-2" data-name="Layer 1"/></g></symbol><symbol viewBox="0 0 1792 1792" id="doc-pdf" xmlns="http://www.w3.org/2000/svg"><path d="M184.691 1771.932V20.064h995.383l428.238 428.448v1323.42H184.691zm454.712-842.675c0-85.604-60.418-145.048-160.503-145.048H307.661v419.951h92.279v-126.067h69.981c94.038 0 169.481-50.361 169.481-147.611v-1.225zm454.052 63.62c0-118.104-90.992-208.668-222.668-208.668h-163.6v419.951h163.6c131.676 0 222.668-91.955 222.668-210.217v-1.066zm400.761-208.668h-319.175v419.951h92.279v-162.638h199.951v-83.94H1267.32v-89.276h226.896v-84.097zm-623.429 336.545h-71.268V867.553h71.268c75.434 0 126.329 52.078 126.329 126.391v1.393c0 74.311-50.895 125.417-126.329 125.417zm-397.82-124.78H399.94V867.553h71.321c45.978 0 74.731 22.193 74.731 63.619v1.183c.001 35.921-26.943 63.619-73.025 63.619z"/></symbol><symbol viewBox="0 0 1792 1792" id="doc-tar" xmlns="http://www.w3.org/2000/svg"><path d="M1179.637 21.75H186.034v1748.526h1420.932V449.132L1179.637 21.75zm300.002 1185.872h-98.295l-88.153-129.56h-72.782v129.56h-83.57V809.378h180.899c50.376 0 89.76 14.302 116.011 40.507 21.879 21.878 33.406 53.037 33.406 89.647v1.168c0 64.572-35.645 105.02-86.979 123.061l99.463 143.861zm-97.224-262.54v-1.071c0-38.366-27.532-58.586-71.72-58.586h-90.287v118.138h91.991c43.652-.001 70.016-23.477 70.016-58.481zm-438.269 171.717H771.789l-37.138 90.823h-85.81l171.717-400.859h77.698l171.137 400.859h-88.049l-37.198-90.823zm-85.907-209.495l-56.302 135.107h112.166l-55.864-135.107zm-318.578 300.318H455.51V887.076H332.993v-77.698h328.658v77.698h-121.99v320.546z"/></symbol><symbol viewBox="0 0 1792 1792" id="doc-zip" xmlns="http://www.w3.org/2000/svg"><path d="M1582.891 52.384H949.397v422.227H843.815V52.384h-633.8v1689.204h1372.978V465.377l-.102-412.993zm-311.384 1016.945h-73.824v128.678h-88.676V775.781h171.162c100.321 0 161.152 59.134 161.152 144.971v1.236c0 97.338-75.989 147.341-169.814 147.341zm80.014-146.719c0-42.995-30.727-66.143-78.982-66.143h-74.855v133.367h76.612c48.145 0 77.226-28.458 77.226-66.091v-1.133zM864.029 775.781h89.29v422.226h-89.29V775.781zm-492.444 355.001l235.446-276.633H379.165v-78.368h342.724v67.285L486.444 1119.75h235.445v78.257H371.585v-67.225z"/></symbol><symbol viewBox="0 0 24 32" id="document" xmlns="http://www.w3.org/2000/svg"><path d="M23.532 11.033L13.05.448a1.227 1.227 0 0 0-.871-.363H1.226C.55.085.001.632.001 1.307v29.472c0 .675.548 1.222 1.225 1.222h21.435c.676 0 1.225-.547 1.225-1.222V11.892c0-.321-.127-.63-.353-.858zm-9.905-3.997c0-.272.329-.408.522-.217l2.54 2.517a.305.305 0 0 1-.216.522h-2.54a.306.306 0 0 1-.306-.305V7.036zm6.584 20.688a.612.612 0 0 1-.612.611H4.288a.611.611 0 0 1-.612-.611V4.36c0-.337.274-.611.612-.611h5.206c.338 0 .612.273.612.611v8.399c0 .337.274.611.612.611h8.88c.338 0 .612.273.612.611v13.743z"/><path d="M16.383 17.08h-8.88c-.93 0-1.684.757-1.684 1.684s.754 1.684 1.684 1.684h8.88c.93 0 1.684-.756 1.684-1.684s-.754-1.684-1.684-1.684zM16.383 22.745h-8.88c-.93 0-1.684.757-1.684 1.684s.754 1.684 1.684 1.684h8.88c.93 0 1.684-.756 1.684-1.684s-.754-1.684-1.684-1.684z"/></symbol><symbol viewBox="0 0 1792 1792" id="envelope" xmlns="http://www.w3.org/2000/svg"><path d="M1236.471 911.917l537.856-580.407v1168.816l-537.856-588.409zM95.12 215.039h1585.25l-799.171 862.138L95.12 215.039zM19.673 1449.586V351.882l505.251 552.519-505.251 545.185zm860.955-153.834l254.744-274.929 508.343 556.138H103.497l521.624-562.799 255.507 281.59z"/></symbol><symbol viewBox="0 0 511.63 401.99" id="envelope-o"><path d="M498.208 68.235c-8.945-8.947-19.701-13.418-32.261-13.418H45.682c-12.562 0-23.318 4.471-32.264 13.418C4.471 77.18 0 87.935 0 100.499v310.633c0 12.566 4.471 23.312 13.418 32.257 8.945 8.953 19.701 13.422 32.264 13.422h420.266c12.56 0 23.315-4.469 32.261-13.422 8.949-8.945 13.418-19.697 13.418-32.257V100.499c-.001-12.564-4.469-23.319-13.419-32.264zm-23.13 342.89c0 2.475-.903 4.616-2.714 6.424-1.81 1.81-3.949 2.706-6.42 2.706H45.679c-2.474 0-4.616-.896-6.423-2.706-1.809-1.808-2.712-3.949-2.712-6.424V191.858a167.121 167.121 0 0 0 19.7 18.843c51.012 39.209 91.553 71.374 121.627 96.5 9.707 8.186 17.607 14.561 23.697 19.13 6.09 4.571 14.322 9.185 24.694 13.846 10.373 4.668 20.129 6.991 29.265 6.991h.571c9.134 0 18.894-2.323 29.263-6.991 10.376-4.661 18.613-9.274 24.701-13.846 6.089-4.569 13.99-10.944 23.698-19.13 30.074-25.126 70.61-57.291 121.624-96.5a166.295 166.295 0 0 0 19.694-18.843v219.267zm0-303.205v3.14c0 11.229-4.421 23.745-13.271 37.543-8.851 13.798-18.419 24.792-28.691 32.974a43121.052 43121.052 0 0 0-114.495 90.506c-1.14.951-4.474 3.757-9.996 8.418-5.514 4.668-9.894 8.241-13.131 10.712-3.241 2.478-7.471 5.475-12.703 8.993-5.236 3.518-10.041 6.14-14.418 7.851-4.377 1.707-8.47 2.562-12.275 2.562h-.571c-3.806 0-7.895-.855-12.275-2.562-4.377-1.711-9.185-4.333-14.417-7.851-5.231-3.519-9.467-6.516-12.703-8.993-3.234-2.471-7.614-6.044-13.132-10.712-5.52-4.661-8.854-7.467-9.995-8.418a42000.437 42000.437 0 0 0-114.487-90.506c-27.981-22.076-41.969-49.106-41.969-81.083 0-2.472.903-4.615 2.712-6.421 1.809-1.809 3.949-2.714 6.423-2.714H465.95c1.52.855 2.854 1.093 3.997.715 1.143-.385 1.998.331 2.566 2.138.571 1.809 1.095 2.664 1.57 2.57.477-.096.764 1.093.859 3.571.089 2.473.137 3.718.137 3.718v3.849h-.001z"/></symbol><symbol viewBox="0 0 28 28" id="eye" xmlns="http://www.w3.org/2000/svg"><path d="M26 15q-2.375-3.687-5.953-5.516Q21 11.109 21 13q0 2.891-2.055 4.945T14 20t-4.945-2.055T7 13q0-1.891.953-3.516Q4.375 11.312 2 15q2.078 3.203 5.211 5.102T14 22t6.789-1.898T26 15zM14.75 9q0-.313-.219-.531T14 8.25q-1.953 0-3.352 1.398T9.25 13q0 .313.219.531t.531.219.531-.219.219-.531q0-1.344.953-2.297T14 9.75q.313 0 .531-.219T14.75 9zM28 15q0 .531-.313 1.078-2.188 3.594-5.883 5.758T13.999 24t-7.805-2.172-5.883-5.75Q-.002 15.531-.002 15t.313-1.078q2.188-3.578 5.883-5.75T13.999 6t7.805 2.172 5.883 5.75Q28 14.469 28 15z"/></symbol><symbol viewBox="0 0 28 28" id="eye-slash" xmlns="http://www.w3.org/2000/svg"><path d="M8.672 20.859l1.219-2.203q-1.359-.984-2.125-2.484T7 13q0-1.891.953-3.516Q4.375 11.312 2 15q2.609 4.031 6.672 5.859zM14.75 9q0-.313-.219-.531T14 8.25q-1.953 0-3.352 1.398T9.25 13q0 .313.219.531t.531.219.531-.219.219-.531q0-1.344.953-2.297T14 9.75q.313 0 .531-.219T14.75 9zm5.672-2.984q0 .109-.016.141-1.641 2.938-4.922 8.844t-4.937 8.859l-.766 1.391q-.156.25-.438.25-.187 0-2.094-1.094-.25-.156-.25-.438 0-.187.688-1.359-2.234-1.016-4.117-2.703T.312 16.079q-.313-.484-.313-1.078t.313-1.078q2.391-3.672 5.938-5.797T14 6.001q1.391 0 2.812.266l.844-1.516q.156-.25.438-.25.078 0 .281.094t.484.242.516.289.492.289.305.18q.25.156.25.422zM21 13q0 2.172-1.234 3.961t-3.266 2.57l4.375-7.844Q21 12.39 21 13zm7 2q0 .547-.313 1.078-.609 1-1.703 2.266-2.344 2.688-5.43 4.172T13.999 24l1.156-2.063q3.313-.281 6.133-2.141t4.711-4.797q-1.797-2.797-4.406-4.594l.984-1.75q1.484 1 2.852 2.391t2.258 2.875q.313.531.313 1.078z"/></symbol><symbol viewBox="0 0 1792 1792" id="facebook" xmlns="http://www.w3.org/2000/svg"><path d="M1343 12v264h-157q-86 0-116 36t-30 108v189h293l-39 296h-254v759H734V905H479V609h255V391q0-186 104-288.5T1115 0q147 0 228 12z"/></symbol><symbol viewBox="0 0 1792 1792" id="file-excel-o" xmlns="http://www.w3.org/2000/svg"><path d="M1596 380q28 28 48 76t20 88v1152q0 40-28 68t-68 28H224q-40 0-68-28t-28-68V96q0-40 28-68t68-28h896q40 0 88 20t76 48zm-444-244v376h376q-10-29-22-41l-313-313q-12-12-41-22zm384 1528V640h-416q-40 0-68-28t-28-68V128H256v1536h1280zm-979-234v106h281v-106h-75l103-161q5-7 10-16.5t7.5-13.5 3.5-4h2q1 4 5 10 2 4 4.5 7.5t6 8 6.5 8.5l107 161h-76v106h291v-106h-68l-192-273 195-282h67V768H956v107h74l-103 159q-4 7-10 16.5t-9 13.5l-2 3h-2q-1-4-5-10-6-11-17-23L776 875h76V768H562v107h68l189 272-194 283h-68z"/></symbol><symbol viewBox="0 0 218.3 218.3" id="file-html" xmlns="http://www.w3.org/2000/svg"><title>file-html</title><g data-name="Layer 2"><path d="M210.3 0H8a8 8 0 0 0-8 8v202.3a8 8 0 0 0 8 8h202.3a8 8 0 0 0 8-8V8a8 8 0 0 0-8-8zm-155 130.6a2 2 0 0 1-2 2h-9a2 2 0 0 1-2-2v-13.82a2 2 0 0 0-2-2H27.6a2 2 0 0 0-2 2v13.82a2 2 0 0 1-2 2h-9a2 2 0 0 1-2-2V87.7a2 2 0 0 1 2-2h9a2 2 0 0 1 2 2v13.55a2 2 0 0 0 2 2h12.68a2 2 0 0 0 2-2V87.7a2 2 0 0 1 2-2h9a2 2 0 0 1 2 2zm48.17-35.51a2 2 0 0 1-2 2H91.39a2 2 0 0 0-2 2v31.51a2 2 0 0 1-2 2h-9a2 2 0 0 1-2-2V99.09a2 2 0 0 0-2-2h-10a2 2 0 0 1-2-2V87.7a2 2 0 0 1 2-2h37.07a2 2 0 0 1 2 2zm56.88 35.51a2 2 0 0 1-2 2h-8.93a2 2 0 0 1-2-2v-18.21a2 2 0 0 0-3.67-1.09l-8.34 12.7h-.27l-8.25-12.65a2 2 0 0 0-3.68 1.09v18.16a2 2 0 0 1-2 2h-8.73a2 2 0 0 1-2-2V87.7a2 2 0 0 1 2-2h10.62a2 2 0 0 1 1.7 1l8.9 14.44a2 2 0 0 0 3.41 0L146 86.65a2 2 0 0 1 1.7-1h10.62a2 2 0 0 1 2 2zm45.36 0a2 2 0 0 1-2 2H172a2 2 0 0 1-2-2V87.7a2 2 0 0 1 2-2h9a2 2 0 0 1 2 2v31.51a2 2 0 0 0 2 2h18.7a2 2 0 0 1 2 2z" data-name="Layer 1"/></g></symbol><symbol viewBox="0 0 365.45 438.53" id="file-text-o"><path d="M396.283 130.188c-3.806-9.135-8.371-16.365-13.703-21.695l-89.078-89.081c-5.332-5.325-12.56-9.895-21.697-13.704C262.672 1.903 254.297 0 246.687 0H63.953C56.341 0 49.869 2.663 44.54 7.993c-5.33 5.327-7.994 11.799-7.994 19.414v383.719c0 7.617 2.664 14.089 7.994 19.417 5.33 5.325 11.801 7.991 19.414 7.991h310.633c7.611 0 14.079-2.666 19.407-7.991 5.328-5.332 7.994-11.8 7.994-19.417V155.313c.003-7.614-1.9-15.99-5.705-25.125zM255.816 38.826c5.517 1.903 9.418 3.999 11.704 6.28l89.366 89.366c2.279 2.286 4.374 6.186 6.276 11.706H255.816V38.826zm109.633 363.165H73.089V36.545h146.178v118.771c0 7.614 2.662 14.084 7.992 19.414 5.332 5.327 11.8 7.994 19.417 7.994h118.773v219.267z"/><path d="M319.77 292.355h-201c-2.663 0-4.853.855-6.567 2.566-1.709 1.711-2.568 3.901-2.568 6.563v18.274c0 2.67.856 4.859 2.568 6.57 1.715 1.711 3.905 2.567 6.567 2.567h201c2.663 0 4.854-.856 6.564-2.567s2.566-3.9 2.566-6.57v-18.274c0-2.662-.855-4.853-2.566-6.563-1.715-1.707-3.905-2.566-6.564-2.566zM112.202 221.831c-1.709 1.712-2.568 3.901-2.568 6.571v18.271c0 2.666.856 4.856 2.568 6.567 1.715 1.711 3.905 2.566 6.567 2.566h201c2.663 0 4.854-.855 6.564-2.566s2.566-3.901 2.566-6.567v-18.271c0-2.663-.855-4.854-2.566-6.571-1.715-1.709-3.905-2.564-6.564-2.564h-201c-2.662 0-4.852.855-6.567 2.564z"/></symbol><symbol viewBox="0 0 1536 1792" id="file-video-o"><path d="M1596 380q28 28 48 76t20 88v1152q0 40-28 68t-68 28H224q-40 0-68-28t-28-68V96q0-40 28-68t68-28h896q40 0 88 20t76 48zm-444-244v376h376q-10-29-22-41l-313-313q-12-12-41-22zm384 1528V640h-416q-40 0-68-28t-28-68V128H256v1536h1280zM896 768q52 0 90 38t38 90v384q0 52-38 90t-90 38H512q-52 0-90-38t-38-90V896q0-52 38-90t90-38h384zm492 2q20 8 20 30v576q0 22-20 30-8 2-12 2-14 0-23-9l-265-266v-90l265-266q9-9 23-9 4 0 12 2z"/></symbol><symbol viewBox="0 0 22.033 22" id="filter" xmlns="http://www.w3.org/2000/svg"><path class="bwst0" d="M21.938.609c.178.427.104.792-.219 1.094l-7.703 7.703V21c0 .438-.203.744-.609.922a1.067 1.067 0 0 1-.391.078.931.931 0 0 1-.703-.297l-4-4A.96.96 0 0 1 8.016 17V9.406L.313 1.703C-.01 1.401-.083 1.036.094.609.271.203.579 0 1.016 0h20c.438 0 .744.203.922.609z"/></symbol><symbol viewBox="0 0 1792 1792" id="folder" xmlns="http://www.w3.org/2000/svg"><path d="M1782.108 653.134v764.801c0 66.726-23.432 123.866-70.301 171.659-46.757 47.911-102.743 71.805-168.084 71.805H249.328c-65.221 0-121.385-23.894-168.083-71.805-46.922-47.793-70.36-104.934-70.36-171.659V374.918c0-66.726 23.438-123.873 70.36-171.547 46.698-47.912 102.862-71.805 168.083-71.805h340.554c65.4 0 121.445 23.894 168.262 71.805 46.811 47.674 70.189 104.821 70.189 171.547v34.864h715.391c65.341 0 121.327 23.781 168.084 71.686 46.869 47.793 70.3 104.94 70.3 171.666z"/></symbol><symbol viewBox="0 0 24 24" id="fullscreen" xmlns="http://www.w3.org/2000/svg"><path d="M6.453 20.047l4.164-4.164-2.5-2.5-4.164 4.164-2.25-2.25c-.312-.323-.672-.396-1.078-.219C.208 15.255 0 15.562 0 16v7a.96.96 0 0 0 .297.703A.964.964 0 0 0 1 24h7c.438 0 .745-.209.922-.625.177-.406.104-.766-.219-1.078l-2.25-2.25zM.625 8.922a.97.97 0 0 0 1.078-.219l2.25-2.25 4.165 4.165 2.5-2.5-4.165-4.165 2.25-2.25c.323-.312.396-.672.219-1.078C8.745.208 8.438 0 8 0H1C.729 0 .495.099.297.297S0 .729 0 1v7c0 .438.208.745.625.922zM23.703.297A.96.96 0 0 0 23 0h-7c-.438 0-.745.208-.922.625-.178.406-.104.766.219 1.078l2.25 2.25-4.164 4.164 2.5 2.5 4.164-4.164 2.25 2.25A.959.959 0 0 0 23 9c.125 0 .255-.026.391-.078.406-.177.609-.484.609-.922V1c0-.271-.1-.505-.297-.703zM23.391 15.078c-.428-.178-.792-.104-1.094.219l-2.25 2.25-4.164-4.164-2.5 2.5 4.164 4.164-2.25 2.25c-.323.312-.396.672-.219 1.078.177.416.484.625.922.625h7c.271 0 .505-.1.703-.297A.964.964 0 0 0 24 23v-7c0-.438-.203-.745-.609-.922z"/></symbol><symbol viewBox="0 0 43.3 43.3" id="globe" xmlns="http://www.w3.org/2000/svg"><path d="M21.7 0C9.7 0 0 9.7 0 21.7s9.7 21.7 21.7 21.7 21.7-9.7 21.7-21.7C43.3 9.7 33.6 0 21.7 0zm7.9 6.6c2.6 1.4 4.9 3.4 6.5 6 .3.5 0 1.2-.7 1.2h-3.8c-.3 0-.6-.2-.7-.5-.6-1.9-1.3-3.8-2.3-5.5-.4-.8.3-1.6 1-1.2zm-12.4 6.1c.9-2.4 2.2-4.7 3.9-6.7.3-.4.9-.4 1.2 0 1.7 2.1 3 4.3 3.9 6.7.2.5-.2 1.1-.7 1.1H18c-.6-.1-1-.6-.8-1.1zm-9.9-.2c1.6-2.5 3.9-4.6 6.5-6 .7-.4 1.4.4 1 1.1-1 1.8-1.7 3.6-2.3 5.5-.1.3-.4.5-.7.5H8c-.6.1-1-.5-.7-1.1zM5.7 25.4c-.4 0-.7-.3-.8-.6-.2-1-.3-2-.3-3.1 0-1 .1-2.1.3-3.1.1-.3.4-.6.8-.6h5c.5 0 .8.4.8.9-.1.9-.1 1.7-.1 2.6 0 1 .1 2 .2 3 .1.5-.3.9-.8.9H5.7zM14.2 37c-2.8-1.4-5.2-3.5-6.9-6.2-.3-.5 0-1.2.7-1.2h4c.3 0 .6.2.7.5.6 2 1.5 3.9 2.5 5.7.4.7-.3 1.5-1 1.2zM26 30.7c-1 2.2-2.2 4.3-3.7 6.3-.3.4-.9.4-1.2 0-1.5-2-2.8-4.1-3.7-6.3-.2-.5.2-1.1.7-1.1h7.1c.6 0 1 .6.8 1.1zm.7-4.8h-3.9v-5h-2.2v5h-3.9v-8.4h10.1v8.4zm9.3 4.9c-1.7 2.6-4.1 4.8-6.9 6.2-.7.3-1.4-.4-1-1.1 1-1.8 1.9-3.7 2.5-5.7.1-.3.4-.5.7-.5h4c.7-.1 1.1.6.7 1.1zm1.6-5.4h-5c-.5 0-.8-.4-.8-.9.1-1 .2-2 .2-3 0-.9 0-1.8-.1-2.6 0-.5.3-.9.8-.9h4.9c.4 0 .7.3.8.6.2 1 .3 2 .3 3.1 0 1-.1 2.1-.3 3.1-.1.3-.4.6-.8.6z"/></symbol><symbol viewBox="0 0 1792 1792" id="google-plus" xmlns="http://www.w3.org/2000/svg"><path d="M1780.993 395.366h-234.485v238.479h-117.295V395.366h-234.167v-119.24h234.167V37.59h117.295v238.537h234.485v119.239zm-662.67 986.292c0 178.695-160.462 396.455-563.986 396.455-295.243 0-541.33-129.709-541.33-347.254 0-168.337 104.672-386.532 593.504-386.532-72.515-60.264-90.269-144.542-46.081-235.669-286.171 0-432.821-171.309-432.821-388.744 0-212.635 155.552-406.009 472.697-406.009h507.982L994.877 135.031H861.39c94.209 54.931 144.172 167.745 144.172 292.382 0 114.277-61.837 206.861-150.103 276.137-156.58 123.239-116.599 192.08 47.582 313.803 161.867 123.446 215.282 218.41 215.282 364.305zm-316.93-946.474C777.872 252.273 660.629 102.015 523.74 97.912c-136.934-4.208-228.763 135.802-205.079 318.816 23.632 183.073 153.822 310.675 290.815 314.986 136.941 4.214 215.607-113.568 191.917-296.53zm141.252 964.812c0-150.421-135.048-293.942-361.223-293.942-204.11-2.159-376.927 131.218-376.927 285.742 0 157.984 147.293 289.417 351.299 289.417 260.764 0 386.851-123.447 386.851-281.217z"/></symbol><symbol viewBox="0 0 224.21 224.13" id="gps" xmlns="http://www.w3.org/2000/svg"><defs><style>.cbcls-1{fill:#1e4a93}</style></defs><title>gps</title><g id="cbLayer_2" data-name="Layer 2"><g id="cbLayer_1-2" data-name="Layer 1"><path class="cbcls-1" d="M212.34 61.8a112.44 112.44 0 0 0-65.48-56.34A113.51 113.51 0 0 0 97.57.88a111.29 111.29 0 0 0-37.74 12 112.11 112.11 0 0 0-16.37 187.88c19.16 14.87 43.29 23.47 67.54 23.34 27.38.65 54.7-9.75 75.16-27.87A112.14 112.14 0 0 0 212.34 61.8zm-14.41 83A92.52 92.52 0 0 1 162 189.12a91.83 91.83 0 0 1-109-6.84A91.56 91.56 0 0 1 31.72 67.71C46.32 40.92 75 22.46 105.43 20.45a91.88 91.88 0 0 1 92.5 124.32z"/><path class="cbcls-1" d="M162.53 55.62q-34.35 14.61-68.75 29.13c-2.83 1.25-6.48 2.1-7.5 5.45-10.41 24.65-20.94 49.25-31.28 73.94a3.8 3.8 0 0 0 5 5c24.7-10.32 49.33-20.86 74-31.27a6.43 6.43 0 0 0 3.88-3.93c10.41-24.7 21-49.34 31.3-74.08 1.66-4.2-3.52-6.48-6.65-4.24zm-53.19 69.24c-7.71-1.45-12.57-10.61-9.3-17.79a13.34 13.34 0 0 1 8.43-7.53c7.92-2.61 16.92 4.14 16.67 12.45.36 8.01-7.99 14.84-15.8 12.87z"/></g></g></symbol><symbol viewBox="0 0 14 14" id="heart" xmlns="http://www.w3.org/2000/svg"><path d="M7 13q-.203 0-.344-.141L1.781 8.156q-.078-.062-.215-.203t-.434-.512-.531-.762-.418-.945-.184-1.078q0-1.719.992-2.687T3.733 1q.484 0 .988.168t.937.453.746.535.594.531q.281-.281.594-.531t.746-.535.937-.453.988-.168q1.75 0 2.742.969t.992 2.687q0 1.727-1.789 3.516l-4.867 4.687Q7.2 13 6.997 13z"/></symbol><symbol viewBox="0 0 14 14" id="heart-o" xmlns="http://www.w3.org/2000/svg"><path d="M13 4.656q0-.633-.168-1.117t-.43-.77-.637-.465-.734-.242T10.265 2t-.875.199-.863.5-.676.563-.469.48q-.141.172-.383.172t-.383-.172q-.187-.219-.469-.48t-.676-.563-.863-.5T3.733 2t-.766.062-.734.242-.637.465-.43.77-.168 1.117q0 1.313 1.461 2.773l4.539 4.375 4.531-4.367q1.469-1.469 1.469-2.781zm1 0q0 1.727-1.789 3.516l-4.867 4.687Q7.203 13 7 13t-.344-.141L1.781 8.156q-.078-.062-.215-.203t-.434-.512-.531-.762-.418-.945-.184-1.078q0-1.719.992-2.687T3.733 1q.484 0 .988.168t.937.453.746.535.594.531q.281-.281.594-.531t.746-.535.937-.453.988-.168q1.75 0 2.742.969t.992 2.687z"/></symbol><symbol viewBox="0 0 1792 1792" id="key" xmlns="http://www.w3.org/2000/svg"><path d="M1573.305 216.223c-263.962-263.189-692.172-263.189-957.869 0-214.186 213.82-253.053 537.316-121.546 790.369l-205.771 205.594-265.696 265.683 43.067 254.977 255.546 43.258 47.282-47.472 249.231-248.853 179.169-179.168c253.242 123.66 566.221 82.313 778.307-129.771 263.583-260.913 263.583-688.825-1.72-954.617zm-414.239 413.561c-82.3-82.11-82.3-215.812 0-298.316 82.314-82.313 216.314-82.313 298.817 0 82.3 82.503 82.3 216.206 0 298.316-82.502 82.787-216.502 82.787-298.817 0z"/></symbol><symbol viewBox="9.598 10.307 8.809 7.391" id="legend-downloadable" xmlns="http://www.w3.org/2000/svg"><path d="M18 12.372a.44.44 0 0 0-.439.439v4.004h-7.084v-4.004a.44.44 0 0 0-.439-.439.44.44 0 0 0-.439.439v4.443a.4.4 0 0 0 .133.31.402.402 0 0 0 .309.134h7.918a.4.4 0 0 0 .31-.134.406.406 0 0 0 .134-.31v-4.443c.035-.263-.137-.439-.403-.439z"/><path d="M13.775 15.143c.043.043.086.043.133.086h.043c.043 0 .086.043.176.043.043 0 .133 0 .176-.043h.043a.092.092 0 0 0 .086-.086l1.626-1.626c.176-.176.176-.439 0-.615s-.439-.176-.615 0l-.881.881v-3.037a.441.441 0 0 0-.44-.439c-.263 0-.439.176-.439.439v3.037l-.881-.881c-.176-.176-.439-.176-.615 0s-.176.439 0 .615l1.588 1.626z"/></symbol><symbol viewBox="0 0 1792 1792" id="legend-external-site" xmlns="http://www.w3.org/2000/svg"><path d="M1137.457 253.448V92.809H1780.011V735.363h-160.639V414.086h-160.639V253.448h-321.276zm160.639 321.276V414.086h160.638v160.638h-160.638zm-160.639 160.638V574.724h160.639v160.638h-160.639zm-481.914 955.359l-321.277-419.014v427.484H12.99v-963.83h321.275v8.623l321.277 418.699V735.362h321.276v963.83H655.543v-8.471z"/></symbol><symbol viewBox="0 0 1792 1792" id="legend-support" xmlns="http://www.w3.org/2000/svg"><path d="M1780.011 574.724v160.638H1137.457V92.809h160.639v321.276h160.639v160.639h321.276zm-160.639-321.277v160.638h-160.638V253.447h160.638zm160.639-160.638v160.638h-160.639V92.809h160.639zM655.543 1690.721l-321.277-419.014v427.484H12.99v-963.83h321.276v8.623l321.277 418.7V735.362h321.276v963.83H655.543v-8.471z"/></symbol><symbol viewBox="0 0 1792 1792" id="legend-vpn" xmlns="http://www.w3.org/2000/svg"><path d="M27.286 1764.714V605.762h193.159V219.445h193.159V26.286h965.793v193.159h193.158v386.317h193.159v1158.952H27.286zM1186.238 219.445H606.762v386.317h579.476V219.445zm15.274 582.402L892.45 1322.189 596.101 801.847l-167.786 95.535 382.266 671.534 81.868-46.592 85.355 46.592 398.953-671.534-175.245-95.535z"/></symbol><symbol viewBox="0 0 1792 1792" id="legend-webapp" xmlns="http://www.w3.org/2000/svg"><path d="M23.596 1769.404V22.596h1746.809v1746.809H23.596zM1552.053 459.298H241.947v1091.755h1310.106V459.298z"/></symbol><symbol viewBox="0 0 8 14" id="lightbulb-o" xmlns="http://www.w3.org/2000/svg"><path d="M5.75 4.5q0 .102-.074.176T5.5 4.75t-.176-.074T5.25 4.5q0-.359-.422-.555T4 3.75q-.102 0-.176-.074T3.75 3.5t.074-.176T4 3.25q.391 0 .777.125t.68.422.293.703zM7 4.5q0-.563-.27-1.047t-.703-.793-.961-.484T4 2t-1.066.176-.961.484-.703.793T1 4.5q0 .789.531 1.406l.238.258.238.258q1 1.195 1.102 2.328H4.89q.102-1.133 1.102-2.328l.238-.258.238-.258q.531-.617.531-1.406zm1 0q0 1.211-.805 2.094-.352.383-.582.68t-.465.746-.266.84q.367.219.367.641 0 .289-.195.5.195.211.195.5 0 .406-.352.633.102.18.102.367 0 .359-.246.555t-.605.195q-.156.344-.469.547t-.68.203-.68-.203-.469-.547q-.359 0-.605-.195t-.246-.555q0-.187.102-.367-.352-.227-.352-.633 0-.289.195-.5-.195-.211-.195-.5 0-.422.367-.641-.031-.391-.266-.84t-.465-.746-.582-.68Q-.002 5.711-.002 4.5q0-.773.348-1.441T1.26 1.95t1.281-.695 1.457-.254 1.457.254 1.281.695.914 1.109.348 1.441z"/></symbol><symbol viewBox="0 0 438.54 419.12" id="linkedin"><path d="M5.424 145.895H99.64v282.932H5.424zM408.842 171.739c-19.791-21.604-45.967-32.408-78.512-32.408-11.991 0-22.891 1.475-32.695 4.427-9.801 2.95-18.079 7.089-24.838 12.419-6.755 5.33-12.135 10.278-16.129 14.844-3.798 4.337-7.512 9.389-11.136 15.104v-40.232h-93.935l.288 13.706c.193 9.139.288 37.307.288 84.508 0 47.205-.19 108.777-.572 184.722h93.931V270.942c0-9.705 1.041-17.412 3.139-23.127 4-9.712 10.037-17.843 18.131-24.407 8.093-6.572 18.13-9.855 30.125-9.855 16.364 0 28.407 5.662 36.117 16.987 7.707 11.324 11.561 26.98 11.561 46.966V428.82h93.931V266.664c-.007-41.688-9.897-73.328-29.694-94.925zM53.103 9.708c-15.796 0-28.595 4.619-38.4 13.848C4.899 32.787 0 44.441 0 58.529 0 72.42 4.758 84.034 14.275 93.358c9.514 9.325 22.078 13.99 37.685 13.99h.571c15.99 0 28.887-4.661 38.688-13.99 9.801-9.324 14.606-20.934 14.417-34.829-.19-14.087-5.047-25.742-14.561-34.973C81.562 14.323 68.9 9.708 53.103 9.708z"/></symbol><symbol id="mynewsdesk" viewBox="0 0 15 15" xmlns="http://www.w3.org/2000/svg"><style>.cmst0{fill:#848484}</style><path class="cmst0" d="M2.9 2.4h2.3c.1 0 .3.2.3.3.1.2 0 .4 0 .7.7-.7 1.5-1.1 2.4-1.3 2.3-.4 4.1.9 4.2 3.2.1 2.5 0 5 0 7.5 0 0 0 .1-.1.1H9.5v-.6-5.2-.6c-.1-1-.6-1.7-1.4-1.8-1-.1-2 .4-2.3 1.3-.2.4-.3 1-.3 1.5v4.9c0 .4-.1.6-.6.6H2.8c.1-3.6.1-7.1.1-10.6z"/></symbol><symbol viewBox="0 0 1008 181.536" id="netapp-logo" xmlns="http://www.w3.org/2000/svg"><path fill="#0067C5" d="M0 0v147.978h69.062V59.187h39.462v88.791h69.048V0z"/><path fill="#010101" d="M256.498.021h29.832l68.817 91.481V.021h31.898v147.937h-27.477l-71.159-93.403v93.411h-31.913L256.498.021zm146.066 92.327c0 34.43 24.973 58.139 58.786 58.139 20.335 0 35.446-7.979 45.908-21.004l-18.23-16.16c-8.81 8.199-16.571 11.562-27.265 11.562-14.3 0-24.342-7.559-27.497-22.037h78.266c.244-2.926.43-5.898.43-8.377 0-31.912-17.207-61.078-54.743-61.078-32.749 0-55.641 26.438-55.641 58.516v.439m31.247-9.455c2.507-14.453 11.121-23.932 24.379-23.932 13.401 0 21.812 9.639 23.69 23.932h-48.069zm99.045 33.149c0 26.027 13.216 33.793 32.694 33.793 10.707 0 18.512-2.518 25.225-6.51v-25.621c-4.632 2.559-9.87 4.041-15.766 4.041-7.106 0-10.268-3.596-10.268-10.943V62.743h26.456v-27.27h-26.456V6.726h-31.888v28.748H519.44v27.27h13.427l.003 53.298m225.878 65.494h31.866v-48.26c7.558 9.008 18.054 16.783 35.046 16.783 26.678 0 51.229-20.564 51.229-58.154v-.4c0-37.566-24.962-58.117-51.229-58.117-16.562 0-27.271 7.738-35.046 18.235V35.477h-31.866v146.059zm86.194-89.629c0 18.889-12.576 31.086-27.469 31.086-14.896 0-27.271-12.402-27.271-31.086v-.402c0-18.679 12.388-31.05 27.271-31.05 14.893 0 27.469 12.371 27.469 31.05v.402m44.912 89.629h31.895v-48.26c7.543 9.008 18.045 16.783 35.066 16.783 26.627 0 51.186-20.564 51.186-58.154v-.4c0-37.566-24.961-58.117-51.186-58.117-16.584 0-27.297 7.738-35.066 18.235V35.477h-31.895v146.059zm86.265-89.629c0 18.889-12.619 31.086-27.52 31.086-14.855 0-27.271-12.402-27.271-31.086v-.402c0-18.679 12.412-31.05 27.271-31.05 14.899 0 27.52 12.371 27.52 31.05v.402m-377.165 56.056h32.938l13.438-32.975h58.239l13.524 32.975h33.666L689.376.006h-29.051l-61.371 147.957zm55.965-61.459l19.534-47.701 19.513 47.701h-39.047z"/></symbol><symbol viewBox="0 0 1792 1792" id="netapp-mark" xmlns="http://www.w3.org/2000/svg"><path d="M1100.155 1642.238V827.617H692.849v814.621H13.989V148.757h1765.025v1493.481h-678.859z"/></symbol><symbol viewBox="0 0 1792 1792" id="paperclip" xmlns="http://www.w3.org/2000/svg"><path d="M1714.432 779.782l-90.935 90.934-545.742-545.685-754.247 754.19 390.499 390.499 481.308-481.433-117.56-117.571L804.94 1143.53l-90.934-90.935 64.309-64.309-64.309-64.31 363.749-363.748 272.803 272.814h.137l90.935 90.934-64.31 64.31 64.31 64.309-636.69 636.677-90.934 90.945-90.934-90.945-454.819-454.808-90.934-90.935 64.309-64.31-64.309-64.309L1077.755 14.544l636.677 636.62-64.31 64.309 64.31 64.309z"/></symbol><symbol viewBox="0 0 509.34 402" id="pencil-square-o"><path d="M396.283 310.907c-3.809-1.52-7.143-.853-9.996 1.998l-18.274 18.274c-1.711 1.708-2.573 3.806-2.573 6.276v35.978c0 12.565-4.463 23.314-13.408 32.264-8.952 8.945-19.701 13.418-32.264 13.418H82.224c-12.562 0-23.317-4.473-32.264-13.418-8.947-8.949-13.418-19.698-13.418-32.264V135.895c0-12.563 4.471-23.317 13.418-32.265 8.947-8.945 19.702-13.418 32.264-13.418H319.77c4.186 0 8.47.571 12.847 1.714 3.433 1.141 6.472.381 9.134-2.284l13.986-13.99c2.286-2.281 3.138-5.043 2.57-8.278-.571-3.044-2.286-5.234-5.141-6.565-10.28-4.752-21.412-7.139-33.403-7.139H82.224c-22.648 0-42.017 8.042-58.102 24.126C8.042 93.882 0 113.246 0 135.897V373.44c0 22.647 8.042 42.014 24.123 58.098 16.084 16.088 35.454 24.13 58.102 24.13h237.539c22.647 0 42.014-8.042 58.098-24.13 16.088-16.084 24.13-35.45 24.13-58.098v-54.245c-.001-4.004-1.908-6.761-5.709-8.288z"/><path d="M182.721 300.354v82.221h82.229l191.86-191.859-82.228-82.225-191.861 191.863zm70.803 54.815l-15.99-.007v-27.401h-27.406v-15.984l33.12-33.12 43.396 43.4-33.12 33.112zm125.337-196.146l-99.931 99.928c-3.234 3.241-6.376 3.334-9.421.288-3.043-3.046-2.95-6.186.287-9.419l99.931-99.929c3.233-3.239 6.368-3.333 9.421-.287s2.943 6.185-.287 9.419zM501.346 107.348L457.95 63.952c-5.328-5.33-11.796-7.995-19.413-7.995-7.615 0-14.086 2.665-19.411 7.995l-26.269 26.263 82.228 82.229 26.262-26.268c5.328-5.327 7.991-11.8 7.991-19.414s-2.664-14.084-7.992-19.414z"/></symbol><symbol viewBox="0 0 224.1 187.93" id="performance" xmlns="http://www.w3.org/2000/svg"><defs><style>.crcls-1{fill:#454545}</style></defs><title>performance</title><g id="crLayer_2" data-name="Layer 2"><g id="crArtwork"><path class="crcls-1" d="M110.5 0C49.9.91.5 50.51 0 111.21a111.56 111.56 0 0 0 27.1 74 8.07 8.07 0 0 0 11.7.4l9.7-9.7-.1-.1 13.6-13.7a6.1 6.1 0 0 0 .3-8.5 6 6 0 0 0-8.6-.1l-6.4 6.4a8 8 0 0 1-12.5-1.5 90.24 90.24 0 0 1-11.6-31.6 8 8 0 0 1 7.9-9.4h9.4a6 6 0 1 0 .2-12h-9.4A8 8 0 0 1 23.4 96a89.62 89.62 0 0 1 15.2-36 7.94 7.94 0 0 1 12.1-.9l6.8 6.8a5.92 5.92 0 0 0 4.2 1.8 5.74 5.74 0 0 0 4.1-1.6 6.19 6.19 0 0 0 0-8.8l-6.6-6.6a7.87 7.87 0 0 1 1-12.1 89.18 89.18 0 0 1 36.7-15.3 8 8 0 0 1 9.3 7.9v10.5a6 6 0 1 0 12 .2V31.21a8 8 0 0 1 9.3-7.9 89 89 0 0 1 36.5 15.2 7.94 7.94 0 0 1 1 12.1l-6.6 6.6a6.28 6.28 0 0 0-.1 8.8 5.91 5.91 0 0 0 4.1 1.6 5.76 5.76 0 0 0 4.2-1.8l6.8-6.8a8 8 0 0 1 12.2 1.1 89.63 89.63 0 0 1 16.5 52 88.73 88.73 0 0 1-12.7 46 8.06 8.06 0 0 1-12.6 1.6l-6.3-6.3a6 6 0 1 0-8.3 8.6l13.6 13.6-.1.1 9.7 9.7a8 8 0 0 0 11.8-.5A111.66 111.66 0 0 0 224.1 112C224.3 49.71 173.2-.89 110.5 0z"/><path class="crcls-1" d="M185.5 105.51l-39.5-5.6a8.17 8.17 0 0 1-5.9-4.1 32.31 32.31 0 1 0 .1 30.8 8 8 0 0 1 5.9-4.2l39.4-6c6.2-1 6.2-10 0-10.9z"/></g></g></symbol><symbol viewBox="-227.196 -227.194 2249.223 2249.219" id="plus" xmlns="http://www.w3.org/2000/svg"><path d="M2022.026 764.896l-.143 265.258-992.022-.004.291 991.735-265.254.139-.147-992.164-991.944.074-.004-265.397 991.662.217.07-991.948h265.4l-.078 991.948 992.169.142z"/></symbol><symbol viewBox="0 0 475.08 438.54" id="print"><path d="M458.959 217.124c-10.759-10.758-23.654-16.134-38.69-16.134h-18.268v-73.089c0-7.611-1.91-15.99-5.719-25.122-3.806-9.136-8.371-16.368-13.699-21.698L339.18 37.683c-5.328-5.325-12.56-9.895-21.692-13.704-9.138-3.805-17.508-5.708-25.126-5.708H100.5c-7.614 0-14.087 2.663-19.417 7.993-5.327 5.327-7.994 11.799-7.994 19.414V200.99H54.818c-15.037 0-27.932 5.379-38.688 16.134C5.376 227.876 0 240.772 0 255.81v118.773c0 2.478.905 4.609 2.712 6.426 1.809 1.804 3.951 2.707 6.423 2.707h63.954v45.68c0 7.617 2.664 14.089 7.994 19.417 5.33 5.325 11.803 7.994 19.417 7.994h274.083c7.611 0 14.093-2.669 19.418-7.994 5.328-5.332 7.994-11.8 7.994-19.417v-45.68h63.953c2.471 0 4.613-.903 6.42-2.707 1.807-1.816 2.71-3.948 2.71-6.426V255.81c.004-15.038-5.37-27.934-16.119-38.686zm-93.51 203.138H109.636v-73.087h255.813v73.087zm0-182.725H109.636V54.816h182.726v45.679c0 7.614 2.669 14.083 7.991 19.414 5.328 5.33 11.799 7.993 19.417 7.993h45.679v109.635zm67.667 31.119c-3.614 3.614-7.898 5.428-12.847 5.428s-9.233-1.813-12.848-5.428c-3.613-3.61-5.42-7.898-5.42-12.847s1.807-9.232 5.42-12.847c3.614-3.617 7.898-5.426 12.848-5.426 4.948 0 9.232 1.809 12.847 5.426 3.613 3.614 5.427 7.898 5.427 12.847s-1.81 9.237-5.427 12.847z"/></symbol><symbol viewBox="0 0 12 14" id="question-circle" xmlns="http://www.w3.org/2000/svg"><path d="M7 10.75v-1.5q0-.109-.07-.18T6.75 9h-1.5q-.109 0-.18.07T5 9.25v1.5q0 .109.07.18t.18.07h1.5q.109 0 .18-.07t.07-.18zM9 5.5q0-.688-.434-1.273t-1.082-.906-1.328-.32q-1.898 0-2.898 1.664-.117.187.062.328l1.031.781q.055.047.148.047.125 0 .195-.094.414-.531.672-.719.266-.187.672-.187.375 0 .668.203t.293.461q0 .297-.156.477t-.531.352q-.492.219-.902.676T5 7.97v.281q0 .109.07.18t.18.07h1.5q.109 0 .18-.07t.07-.18q0-.148.168-.387t.426-.387q.25-.141.383-.223t.359-.273.348-.375.219-.473.098-.633zM12 7q0 1.633-.805 3.012t-2.184 2.184-3.012.805-3.012-.805-2.184-2.184T-.002 7t.805-3.012 2.184-2.184T5.999.999t3.012.805 2.184 2.184T12 7z"/></symbol><symbol viewBox="0 0 223.52 190.25" id="risks" xmlns="http://www.w3.org/2000/svg"><title>risks</title><path d="M207.14 16.49a55.69 55.69 0 0 0-61-12.19A56.46 56.46 0 0 0 128 16.66l-10.1 9.25a9.29 9.29 0 0 1-12.66-.09l-9.68-9.15A56.49 56.49 0 0 0 77.37 4.29 56 56 0 0 0 0 56.3c0 7.64 1.55 18.75 4.29 25.47A64.82 64.82 0 0 0 10 92.59h47.52a4 4 0 0 0 3.66-2.39l15-34a4 4 0 0 1 7.16-.2l23.89 44.71a4 4 0 0 0 7.18-.24l28-62.12a4 4 0 0 1 7.39.22L169.35 90a4 4 0 0 0 3.74 2.58h40.41a65 65 0 0 0 5.74-10.82c2.78-6.72 4.29-17.83 4.29-25.47a56.31 56.31 0 0 0-16.39-39.8z"/><path d="M156.94 108l-8.58-22.54a4 4 0 0 0-7.39-.22l-25.18 56a4 4 0 0 1-7.18.24L84.9 97.06a4 4 0 0 0-7.19.27l-4.79 10.87a4 4 0 0 1-3.66 2.39H26.48c26.15 26 65.09 63.59 79.44 77.42a8.08 8.08 0 0 0 11.15 0c14.44-13.81 53.71-51.45 80-77.44h-36.39a4 4 0 0 1-3.74-2.57z"/></symbol><symbol viewBox="0 0 1792 1792" id="save" xmlns="http://www.w3.org/2000/svg"><path d="M512 1536h768v-384H512v384zm896 0h128V640q0-14-10-38.5t-20-34.5l-281-281q-10-10-34-20t-39-10v416q0 40-28 68t-68 28H480q-40 0-68-28t-28-68V256H256v1280h128v-416q0-40 28-68t68-28h832q40 0 68 28t28 68v416zm-384-928V288q0-13-9.5-22.5T992 256H800q-13 0-22.5 9.5T768 288v320q0 13 9.5 22.5T800 640h192q13 0 22.5-9.5t9.5-22.5zm640 32v928q0 40-28 68t-68 28H224q-40 0-68-28t-28-68V224q0-40 28-68t68-28h928q40 0 88 20t76 48l280 280q28 28 48 76t20 88z"/></symbol><symbol viewBox="0 0 224 177" id="screen-bar-graph" xmlns="http://www.w3.org/2000/svg"><title>screen-bar-graph</title><g data-name="Layer 2"><path d="M216 0H8a8 8 0 0 0-8 8v128a8 8 0 0 0 8 8h75.5a5.5 5.5 0 0 1 0 11H66a8 8 0 0 0-8 8v6a8 8 0 0 0 8 8h92a8 8 0 0 0 8-8v-6a8 8 0 0 0-8-8h-17.5a5.5 5.5 0 0 1 0-11H216a8 8 0 0 0 8-8V8a8 8 0 0 0-8-8zm-14 118a4 4 0 0 1-4 4H26a4 4 0 0 1-4-4V26a4 4 0 0 1 4-4h172a4 4 0 0 1 4 4z"/><path d="M64.8 85h-15a4 4 0 0 0-4 4v15a4 4 0 0 0 4 4h15a4 4 0 0 0 4-4V89a4 4 0 0 0-4-4zM101.3 72h-15a4 4 0 0 0-4 4v28a4 4 0 0 0 4 4h15a4 4 0 0 0 4-4V76a4 4 0 0 0-4-4zM137.8 56h-15a4 4 0 0 0-4 4v44a4 4 0 0 0 4 4h15a4 4 0 0 0 4-4V60a4 4 0 0 0-4-4zM174.3 37h-15a4 4 0 0 0-4 4v63a4 4 0 0 0 4 4h15a4 4 0 0 0 4-4V41a4 4 0 0 0-4-4z"/></g></symbol><symbol viewBox="0 0 475.09 475.08" id="search"><path d="M464.524 412.846l-97.929-97.925c23.6-34.068 35.406-72.047 35.406-113.917 0-27.218-5.284-53.249-15.852-78.087-10.561-24.842-24.838-46.254-42.825-64.241-17.987-17.987-39.396-32.264-64.233-42.826C254.246 5.285 228.217.003 200.999.003c-27.216 0-53.247 5.282-78.085 15.847C98.072 26.412 76.66 40.689 58.673 58.676c-17.989 17.987-32.264 39.403-42.827 64.241C5.282 147.758 0 173.786 0 201.004c0 27.216 5.282 53.238 15.846 78.083 10.562 24.838 24.838 46.247 42.827 64.234 17.987 17.993 39.403 32.264 64.241 42.832 24.841 10.563 50.869 15.844 78.085 15.844 41.879 0 79.852-11.807 113.922-35.405l97.929 97.641c6.852 7.231 15.406 10.849 25.693 10.849 9.897 0 18.467-3.617 25.694-10.849 7.23-7.23 10.848-15.796 10.848-25.693.003-10.082-3.518-18.651-10.561-25.694zM291.363 291.358c-25.029 25.033-55.148 37.549-90.364 37.549-35.21 0-65.329-12.519-90.36-37.549-25.031-25.029-37.546-55.144-37.546-90.36 0-35.21 12.518-65.334 37.546-90.36 25.026-25.032 55.15-37.546 90.36-37.546 35.212 0 65.331 12.519 90.364 37.546 25.033 25.026 37.548 55.15 37.548 90.36 0 35.216-12.519 65.331-37.548 90.36z"/></symbol><symbol viewBox="0 0 1770 1801.33" id="slideshare"><path d="M873 740q0 83-63.5 142.5T657 942t-152.5-59.5T441 740q0-84 63.5-143T657 538t152.5 59T873 740zm502 0q0 83-63 142.5T1159 942q-89 0-152.5-59.5T943 740q0-84 63.5-143t152.5-59q90 0 153 59t63 143zm225 180V253q0-87-32-123.5T1457 93H345q-83 0-112.5 34T203 253v673q43 23 88.5 40t81 28 81 18.5 71 11 70 4 58.5.5 56.5-2 44.5-2q68-1 95 27 6 6 10 9 26 25 61 51 7-91 118-87 5 0 36.5 1.5t43 2 45.5 1 53-1 54.5-4.5 61-8.5 62-13.5 67-19.5 67.5-27 72-34.5zm163-5q-121 149-372 252 84 285-23 465-66 113-183 148-104 32-182-15-86-51-82-164l-1-326v-1q-8-2-24.5-6t-23.5-5l-1 338q4 114-83 164-79 47-183 15-117-36-182-150-105-180-22-463-251-103-372-252-25-37-4-63t60 1q3 2 11 7t11 8V174q0-72 47-123T268 0h1257q67 0 114 51t47 123v694l21-15q39-27 60-1t-4 63z"/></symbol><symbol viewBox="0 0 1792 1792" id="star" xmlns="http://www.w3.org/2000/svg"><path d="M897.133 13.944l209.8 673.736h679.33l-549.465 416.587 210.052 673.8-549.717-416.398-549.475 416.398 209.81-673.8L7.878 687.681h679.393L897.133 13.944z"/></symbol><symbol viewBox="0 0 210.23 200.02" id="storage-efficiency" xmlns="http://www.w3.org/2000/svg"><title>storage-efficiency</title><circle cx="169.08" cy="17.98" r="17.98"/><circle cx="105.1" cy="17.98" r="17.98"/><circle cx="41.15" cy="17.98" r="17.98"/><circle cx="74.32" cy="60.86" r="17.98"/><circle cx="135.91" cy="60.86" r="17.98"/><path d="M201.23 94.87H9a9 9 0 0 0 0 18h192.23a9 9 0 0 0 0-18z"/><circle cx="105.11" cy="162.4" r="37.63"/></symbol><symbol viewBox="0 0 1792 1792" id="subscribe" xmlns="http://www.w3.org/2000/svg"><path d="M1478.548 1787.853c0-812.474-660.807-1473.46-1473.27-1473.46V4.147c983.427 0 1783.575 800.158 1783.575 1783.705h-310.305zm-1240.73-465.332c128.531 0 232.731 104.14 232.731 232.661 0 128.41-104.2 232.671-232.731 232.671-128.47 0-232.671-104.261-232.671-232.671 0-128.522 104.201-232.661 232.671-232.661zM5.278 624.517c641.26 0 1163.215 521.815 1163.215 1163.336H858.248c0-470.316-382.724-853.161-852.97-853.161V624.517z"/></symbol><symbol viewBox="0 0 192.7 224" id="systems" xmlns="http://www.w3.org/2000/svg"><title>systems</title><g data-name="Layer 2"><path d="M184.7 161H8a8 8 0 0 0-8 8v47a8 8 0 0 0 8 8h176.7a8 8 0 0 0 8-8v-47a8 8 0 0 0-8-8zm-13.3 51.5a10 10 0 1 1 10-10 10 10 0 0 1-10 10zM184.7 80.5H8a8 8 0 0 0-8 8v47a8 8 0 0 0 8 8h176.7a8 8 0 0 0 8-8v-47a8 8 0 0 0-8-8zM171.4 132a10 10 0 1 1 10-10 10 10 0 0 1-10 10zM184.7 0H8a8 8 0 0 0-8 8v47a8 8 0 0 0 8 8h176.7a8 8 0 0 0 8-8V8a8 8 0 0 0-8-8zm-13.3 51.5a10 10 0 1 1 10-10 10 10 0 0 1-10 10z"/></g></symbol><symbol viewBox="0 0 28 28" id="th" xmlns="http://www.w3.org/2000/svg"><path d="M8 19.5v3q0 .625-.438 1.062T6.5 24h-5q-.625 0-1.062-.438T0 22.5v-3q0-.625.438-1.062T1.5 18h5q.625 0 1.062.438T8 19.5zm0-8v3q0 .625-.438 1.062T6.5 16h-5q-.625 0-1.062-.438T0 14.5v-3q0-.625.438-1.062T1.5 10h5q.625 0 1.062.438T8 11.5zm10 8v3q0 .625-.438 1.062T16.5 24h-5q-.625 0-1.062-.438T10 22.5v-3q0-.625.438-1.062T11.5 18h5q.625 0 1.062.438T18 19.5zM8 3.5v3q0 .625-.438 1.062T6.5 8h-5Q.875 8 .438 7.562T0 6.5v-3q0-.625.438-1.062T1.5 2h5q.625 0 1.062.438T8 3.5zm10 8v3q0 .625-.438 1.062T16.5 16h-5q-.625 0-1.062-.438T10 14.5v-3q0-.625.438-1.062T11.5 10h5q.625 0 1.062.438T18 11.5zm10 8v3q0 .625-.438 1.062T26.5 24h-5q-.625 0-1.062-.438T20 22.5v-3q0-.625.438-1.062T21.5 18h5q.625 0 1.062.438T28 19.5zm-10-16v3q0 .625-.438 1.062T16.5 8h-5q-.625 0-1.062-.438T10 6.5v-3q0-.625.438-1.062T11.5 2h5q.625 0 1.062.438T18 3.5zm10 8v3q0 .625-.438 1.062T26.5 16h-5q-.625 0-1.062-.438T20 14.5v-3q0-.625.438-1.062T21.5 10h5q.625 0 1.062.438T28 11.5zm0-8v3q0 .625-.438 1.062T26.5 8h-5q-.625 0-1.062-.438T20 6.5v-3q0-.625.438-1.062T21.5 2h5q.625 0 1.062.438T28 3.5z"/></symbol><symbol viewBox="0 0 28 28" id="th-list" xmlns="http://www.w3.org/2000/svg"><path d="M8 19.5v3q0 .625-.438 1.062T6.5 24h-5q-.625 0-1.062-.438T0 22.5v-3q0-.625.438-1.062T1.5 18h5q.625 0 1.062.438T8 19.5zm0-8v3q0 .625-.438 1.062T6.5 16h-5q-.625 0-1.062-.438T0 14.5v-3q0-.625.438-1.062T1.5 10h5q.625 0 1.062.438T8 11.5zm20 8v3q0 .625-.438 1.062T26.5 24h-15q-.625 0-1.062-.438T10 22.5v-3q0-.625.438-1.062T11.5 18h15q.625 0 1.062.438T28 19.5zM8 3.5v3q0 .625-.438 1.062T6.5 8h-5Q.875 8 .438 7.562T0 6.5v-3q0-.625.438-1.062T1.5 2h5q.625 0 1.062.438T8 3.5zm20 8v3q0 .625-.438 1.062T26.5 16h-15q-.625 0-1.062-.438T10 14.5v-3q0-.625.438-1.062T11.5 10h15q.625 0 1.062.438T28 11.5zm0-8v3q0 .625-.438 1.062T26.5 8h-15q-.625 0-1.062-.438T10 6.5v-3q0-.625.438-1.062T11.5 2h15q.625 0 1.062.438T28 3.5z"/></symbol><symbol viewBox="0 0 438.53 438.53" id="times-circle"><path d="M409.133 109.203c-19.608-33.592-46.205-60.189-79.798-79.796C295.736 9.801 259.058 0 219.273 0c-39.781 0-76.47 9.801-110.063 29.407-33.595 19.604-60.192 46.201-79.8 79.796C9.801 142.8 0 179.489 0 219.267c0 39.78 9.804 76.463 29.407 110.062 19.607 33.592 46.204 60.189 79.799 79.798 33.597 19.605 70.283 29.407 110.063 29.407s76.47-9.802 110.065-29.407c33.593-19.602 60.189-46.206 79.795-79.798 19.603-33.596 29.403-70.284 29.403-110.062.001-39.782-9.8-76.472-29.399-110.064zm-86.512 161.736c3.617 3.613 5.428 7.905 5.428 12.854 0 5.133-1.811 9.514-5.428 13.127l-25.693 25.701c-3.614 3.613-7.994 5.42-13.135 5.42-4.948 0-9.236-1.807-12.847-5.42l-51.676-51.682-51.678 51.682c-3.616 3.613-7.898 5.42-12.847 5.42-5.14 0-9.517-1.807-13.134-5.42l-25.697-25.701c-3.616-3.613-5.424-7.994-5.424-13.127 0-4.948 1.809-9.24 5.424-12.854l51.678-51.673-51.678-51.678c-3.616-3.612-5.424-7.898-5.424-12.847 0-5.14 1.809-9.517 5.424-13.134l25.697-25.693c3.617-3.616 7.994-5.424 13.134-5.424 4.949 0 9.231 1.809 12.847 5.424l51.678 51.674 51.676-51.674c3.61-3.616 7.898-5.424 12.847-5.424 5.141 0 9.521 1.809 13.135 5.424l25.693 25.693c3.617 3.617 5.428 7.994 5.428 13.134 0 4.948-1.811 9.235-5.428 12.847l-51.675 51.678 51.675 51.673z"/></symbol><symbol viewBox="0 0 1792 1792" id="translate" xmlns="http://www.w3.org/2000/svg"><path d="M1687.254 1448.1h-465.187c-40.696 0-93.02 51.593-93.02 92.929v186.039c0 26.522-39.514 9.082-58.317-9.271l-296.276-332.466c-9.944-11.627-10.125-28.525-.362-39.882l296.819-331.109c18.984-18.255 58.137-37.24 58.137 61.593v92.929c0 41.51 52.323 93.2 93.02 93.2h279.058c40.515 0 93.02-51.69 93.02-93.2V610.746c0-41.148-52.505-92.929-93.02-92.929h-93.02c-40.695 0-93.109-51.732-93.109-93.02 0-41.238 52.414-92.929 93.109-92.929h279.148c40.424 0 92.929 51.69 92.929 92.929v930.192c0 41.42-52.505 93.111-92.929 93.111zM721.818 764.851c-18.895 18.491-57.866 21.308-57.866-60.996v-93.109c0-41.148-52.372-92.929-93.02-92.929H291.875c-40.557 0-93.019 51.781-93.019 92.929v558.115c0 41.329 52.462 93.2 93.019 93.2h93.02c40.557 0 93.019 51.503 93.019 92.929 0 41.238-52.462 93.109-93.019 93.109H105.837c-40.654 0-93.02-51.871-93.02-93.109V424.798c0-41.238 52.365-92.929 93.02-92.929h465.096c40.647 0 93.02-51.822 93.02-93.109v-92.929c0-106.643 39.242-102.512 58.046-84.208l296.228 332.563c9.985 11.447 10.354 28.429.542 39.695l-296.951 330.97z"/></symbol><symbol viewBox="0 0 401.99 438.53" id="trash-o"><path d="M417.689 75.654c-1.711-1.709-3.901-2.568-6.563-2.568h-88.224L302.917 25.41c-2.854-7.044-7.994-13.04-15.413-17.989C280.078 2.473 272.556 0 264.945 0h-91.363c-7.611 0-15.131 2.473-22.554 7.421-7.424 4.949-12.563 10.944-15.419 17.989l-19.985 47.676h-88.22c-2.667 0-4.853.859-6.567 2.568-1.709 1.713-2.568 3.903-2.568 6.567v18.274c0 2.664.855 4.854 2.568 6.564 1.714 1.712 3.904 2.568 6.567 2.568H54.81v271.8c0 15.803 4.473 29.266 13.418 40.398 8.947 11.139 19.701 16.703 32.264 16.703h237.542c12.566 0 23.319-5.756 32.265-17.268 8.945-11.52 13.415-25.174 13.415-40.971V109.627h27.411c2.662 0 4.853-.856 6.563-2.568 1.708-1.709 2.57-3.9 2.57-6.564V82.221c.002-2.664-.861-4.854-2.569-6.567zM169.301 39.678c1.331-1.712 2.95-2.762 4.853-3.14h90.504c1.903.381 3.525 1.43 4.854 3.14l13.709 33.404h-127.91l13.99-33.404zm177.872 340.613c0 4.186-.664 8.042-1.999 11.561-1.334 3.518-2.717 6.088-4.141 7.706-1.431 1.622-2.423 2.427-2.998 2.427H100.493c-.571 0-1.565-.805-2.996-2.427-1.429-1.618-2.81-4.188-4.143-7.706-1.331-3.519-1.997-7.379-1.997-11.561V109.627h255.815v270.664z"/><path d="M137.04 347.172h18.271c2.667 0 4.858-.855 6.567-2.567 1.709-1.718 2.568-3.901 2.568-6.57V173.581c0-2.663-.859-4.853-2.568-6.567-1.714-1.709-3.899-2.565-6.567-2.565H137.04c-2.667 0-4.854.855-6.567 2.565-1.711 1.714-2.568 3.904-2.568 6.567v164.454c0 2.669.854 4.853 2.568 6.57 1.713 1.711 3.9 2.567 6.567 2.567zM210.129 347.172H228.4c2.666 0 4.856-.855 6.564-2.567 1.718-1.718 2.569-3.901 2.569-6.57V173.581c0-2.663-.852-4.853-2.569-6.567-1.708-1.709-3.898-2.565-6.564-2.565h-18.271c-2.664 0-4.854.855-6.567 2.565-1.714 1.714-2.568 3.904-2.568 6.567v164.454c0 2.669.854 4.853 2.568 6.57 1.712 1.711 3.903 2.567 6.567 2.567zM283.22 347.172h18.268c2.669 0 4.859-.855 6.57-2.567 1.711-1.718 2.562-3.901 2.562-6.57V173.581c0-2.663-.852-4.853-2.562-6.567-1.711-1.709-3.901-2.565-6.57-2.565H283.22c-2.67 0-4.853.855-6.571 2.565-1.711 1.714-2.566 3.904-2.566 6.567v164.454c0 2.669.855 4.853 2.566 6.57 1.718 1.711 3.901 2.567 6.571 2.567z"/></symbol><symbol viewBox="0 0 1792 1792" id="triangle-info" xmlns="http://www.w3.org/2000/svg"><path d="M1007.639 232.17c0-61.072-49.566-110.638-110.639-110.638-61.073 0-110.638 49.566-110.638 110.638L11.894 1559.83c0 61.072 49.565 110.639 110.638 110.639h1548.937c61.072 0 110.638-49.566 110.638-110.639L1007.639 232.17zm-41.615 1179.954h-143.05V982.975h143.05v429.149zm0-500.675h-143.05V696.875h143.05v214.574z"/></symbol><symbol viewBox="0 0 449.96 365.44" id="twitter"><path d="M449.956 85.657c-17.702 7.614-35.408 12.369-53.102 14.279 19.985-11.991 33.503-28.931 40.546-50.819-18.281 10.847-37.787 18.268-58.532 22.267-18.274-19.414-40.73-29.125-67.383-29.125-25.502 0-47.246 8.992-65.24 26.98-17.984 17.987-26.977 39.731-26.977 65.235 0 6.851.76 13.896 2.284 21.128-37.688-1.903-73.042-11.372-106.068-28.407C82.46 110.158 54.433 87.46 31.403 59.101c-8.375 14.272-12.564 29.787-12.564 46.536 0 15.798 3.711 30.456 11.138 43.97 7.422 13.512 17.417 24.455 29.98 32.831-14.849-.572-28.743-4.475-41.684-11.708v1.142c0 22.271 6.995 41.824 20.983 58.674 13.99 16.848 31.645 27.453 52.961 31.833a95.543 95.543 0 0 1-24.269 3.138c-5.33 0-11.136-.475-17.416-1.42 5.9 18.459 16.75 33.633 32.546 45.535 15.799 11.896 33.691 18.028 53.677 18.418-33.498 26.262-71.66 39.393-114.486 39.393-8.186 0-15.607-.373-22.27-1.139 42.827 27.596 90.03 41.394 141.612 41.394 32.738 0 63.478-5.181 92.21-15.557 28.746-10.369 53.297-24.267 73.665-41.686 20.362-17.415 37.925-37.448 52.674-60.097 14.75-22.651 25.738-46.298 32.977-70.946 7.23-24.653 10.848-49.344 10.848-74.092 0-5.33-.096-9.325-.287-11.991 18.087-13.127 33.504-29.023 46.258-47.672z"/></symbol><symbol viewBox="0 0 207.67 149.87" id="upgrade" xmlns="http://www.w3.org/2000/svg"><defs><style>.dlcls-1{fill:#454545}</style></defs><title>upgrade</title><g id="dlLayer_2" data-name="Layer 2"><path class="dlcls-1" d="M206.67 1.1a3.63 3.63 0 0 0-2.6-1.1h-61.5c-3.7.2-5.6 4.7-3.2 7.2l13.1 13.1a3.74 3.74 0 0 1 0 5.2l-38.3 38.3a3.74 3.74 0 0 1-5.2 0L88.28 43.3a7.42 7.42 0 0 0-10.5 0l-75.6 75.6a7.42 7.42 0 0 0 0 10.5l18.3 18.3a7.42 7.42 0 0 0 10.5 0l49.5-49.5a3.74 3.74 0 0 1 5.2 0l20.6 20.6a7.42 7.42 0 0 0 10.5 0l64.5-64.5a3.74 3.74 0 0 1 5.2 0l1.5 1.5 12.4 12.4c2.5 2.5 7 .3 7.2-3.4l.1-61.2a3.74 3.74 0 0 0-1.01-2.5z" id="dlArtwork"/></g></symbol><symbol viewBox="0 0 1792 1792" id="user" xmlns="http://www.w3.org/2000/svg"><path d="M272.218 1783.975c0-441.718 91.588-711.18 622.282-711.18 524.882 0 622.282 269.462 622.282 711.18H272.218zM894.5 895c-245.509 0-444.487-198.979-444.487-444.311 0-245.685 198.979-444.663 444.487-444.663s444.487 198.979 444.487 444.663C1338.987 696.021 1140.009 895 894.5 895z"/></symbol><symbol viewBox="0 0 224.63 224.31" id="visualization" xmlns="http://www.w3.org/2000/svg"><defs><style>.dncls-1{fill:#454545}</style></defs><title>Asset 1</title><g id="dnLayer_2" data-name="Layer 2"><g id="dnArtwork"><path class="dncls-1" d="M113.53 0a112.3 112.3 0 0 0-49.7 213.6 8 8 0 0 0 11.4-7.2v-9.2a4 4 0 0 0-2.3-3.6 90.76 90.76 0 0 1-51-79.9c-.8-49.7 39.3-91 89-91.7a90.29 90.29 0 0 1 39.6 172.1 4.18 4.18 0 0 0-2.4 3.6v9.2a8 8 0 0 0 11.3 7.3A112.28 112.28 0 0 0 113.53 0z"/><path class="dncls-1" d="M97.43 97.81a21.37 21.37 0 0 1 29.9-.2l.1.1.1.1s27.4 27.6 38 38.5a4 4 0 0 0 6.6-1.4 63.94 63.94 0 1 0-119.6.3 4 4 0 0 0 6.6 1.3c10.7-10.9 38.3-38.6 38.3-38.7z"/><path class="dncls-1" d="M154.13 149.91l-39.3-39.3a3.25 3.25 0 0 0-2.4-1 3.41 3.41 0 0 0-2.4 1L70.43 150c-2.2 2.5-.6 6.6 2.6 6.6h12.2a8 8 0 0 1 8 8v54.6a4.08 4.08 0 0 0 3.5 4 113.11 113.11 0 0 0 15.5 1.1 116.39 116.39 0 0 0 14.5-.9 4.08 4.08 0 0 0 3.5-4v-54.7a8 8 0 0 1 8-8h13.4c3.1.01 4.7-4.19 2.5-6.79z"/></g></g></symbol><symbol viewBox="0 0 15 15" id="weibo" xmlns="http://www.w3.org/2000/svg"><path class="dost0" d="M6.2 12.8c-2.5.2-4.6-.9-4.7-2.5C1.3 8.7 3.2 7.2 5.7 7c2.5-.2 4.6.9 4.7 2.5.2 1.6-1.7 3.1-4.2 3.3m5-5.3c-.2-.1-.4-.1-.2-.4.2-.6.3-1.1 0-1.5-.5-.7-1.8-.7-3.3 0 0 0-.5.2-.4-.2.2-.7.2-1.4-.2-1.7-.8-.8-3 0-4.9 1.9C.8 7 0 8.5 0 9.8c0 2.5 3.1 3.9 6.2 3.9 4 0 6.7-2.3 6.7-4.2.1-1.1-.9-1.8-1.7-2M13.8 3c-1-1.1-2.4-1.5-3.7-1.2-.3 0-.5.3-.4.6 0 .4.3.6.6.5.9-.2 2 .1 2.7.9.7.8.9 1.8.6 2.7-.1.3.1.6.4.7.3.1.6-.1.7-.4.4-1.3.1-2.7-.9-3.8"/><path class="dost0" d="M12.3 4.3c-.5-.5-1.2-.7-1.8-.6-.3.1-.4.3-.4.6.1.3.3.4.6.4.3-.1.7 0 .9.3.2.3.3.6.2.9-.1.3.1.5.3.6.3.1.5-.1.6-.3.2-.6.1-1.3-.4-1.9M6.4 9.9c-.1.1-.3.2-.4.2-.2-.1-.2-.3-.2-.4.1-.1.3-.2.4-.2.2.1.3.3.2.4m-.8 1c-.2.4-.7.5-1.1.4-.4-.2-.5-.6-.3-1s.7-.5 1.1-.4c.4.2.5.6.3 1m.9-2.7c-1.2-.3-2.5.3-3 1.3-.5 1.1 0 2.2 1.2 2.6 1.2.4 2.7-.2 3.2-1.3.4-1.1-.2-2.3-1.4-2.6"/></symbol><symbol viewBox="0 0 15 15" id="xing" xmlns="http://www.w3.org/2000/svg"><path class="dpst0" d="M13.8.2c.2.2.2.3.1.6-.6 1.1-1.3 2.2-1.9 3.3-.4.8-.9 1.6-1.3 2.4-.5.8-.9 1.5-1.3 2.3V9c.4.8.9 1.6 1.3 2.4.4.7.8 1.5 1.2 2.2l.3.6c.1.2.1.4-.1.5H9.8c-.3-.1-.4-.3-.6-.5-.5-.9-1-1.9-1.5-2.8-.4-.7-.7-1.3-1.1-2 0-.1-.1-.2-.2-.4-.1-.1-.1-.2 0-.2.3-.5.5-1 .8-1.4.5-.8.9-1.6 1.4-2.5.4-.8.9-1.6 1.3-2.4.3-.6.7-1.2 1-1.8.1-.2.3-.4.5-.5h2.4zM3 10.4H2c-.4 0-.5-.2-.3-.5.4-.8.9-1.6 1.3-2.4.3-.5.6-.9.8-1.4v-.2L2.6 3.8c0-.1-.1-.2-.1-.3-.1-.2 0-.4.2-.4h2.1c.3 0 .6.1.7.4.4.7.8 1.3 1.1 2 .1.2.2.3.3.5v.2c-.4.4-.6.9-.9 1.4-.5.8-.9 1.6-1.4 2.4-.2.3-.4.5-.8.5-.2-.1-.5-.1-.8-.1z"/></symbol><symbol viewBox="0 0 423.13 511.63" id="youtube"><path d="M459.954 264.376c-2.471-11.233-7.949-20.653-16.416-28.264-8.474-7.611-18.227-12.085-29.27-13.418-35.02-3.806-87.837-5.708-158.457-5.708-70.618 0-123.341 1.903-158.174 5.708-11.227 1.333-21.029 5.807-29.407 13.418-8.376 7.614-13.896 17.035-16.562 28.264-4.948 22.083-7.423 55.391-7.423 99.931 0 45.299 2.475 78.61 7.423 99.93 2.478 11.225 7.951 20.653 16.421 28.261 8.47 7.614 18.225 11.991 29.263 13.134 35.026 3.997 87.847 5.996 158.461 5.996 70.609 0 123.44-1.999 158.453-5.996 11.043-1.143 20.748-5.52 29.126-13.134 8.377-7.607 13.897-17.036 16.56-28.261 4.948-22.083 7.426-55.391 7.426-99.93-.001-45.3-2.479-78.612-7.424-99.931zm-294.929 28.842h-30.549v162.45h-28.549v-162.45h-29.98v-26.837h89.079v26.837zm77.085 162.45H216.7v-15.421c-10.278 11.615-19.989 17.419-29.125 17.419-8.754 0-14.275-3.524-16.556-10.564-1.521-4.568-2.286-11.519-2.286-20.844V314.627h25.41v103.924c0 6.088.096 9.421.288 9.993.571 3.997 2.568 5.995 5.996 5.995 5.138 0 10.566-3.997 16.274-11.991V314.627h25.41v141.041zm97.073-42.257c0 13.894-.855 23.417-2.56 28.558-3.244 10.462-9.996 15.697-20.273 15.697-9.137 0-17.986-5.235-26.556-15.697v13.702h-25.406v-189.29h25.406v61.955c8.189-10.273 17.036-15.413 26.556-15.413 10.277 0 17.029 5.331 20.273 15.988 1.704 4.948 2.56 14.369 2.56 28.264v56.236zm96.502-23.408h-51.104v24.839c0 13.134 4.374 19.697 13.131 19.697 6.279 0 10.089-3.422 11.42-10.28.376-1.902.571-7.706.571-17.412h25.981v3.71c0 9.329-.195 14.846-.572 16.563-.567 5.133-2.56 10.273-5.995 15.413-6.852 10.089-17.139 15.133-30.841 15.133-13.127 0-23.407-4.855-30.833-14.558-5.517-7.043-8.275-18.083-8.275-33.12v-49.396c0-15.036 2.662-26.076 7.987-33.119 7.427-9.705 17.61-14.558 30.557-14.558 12.755 0 22.85 4.853 30.263 14.558 5.146 7.043 7.71 18.083 7.71 33.119v29.411z"/><path d="M302.634 336.043c-4.38 0-8.658 2.101-12.847 6.283v85.934c4.188 4.186 8.467 6.279 12.847 6.279 7.419 0 11.14-6.372 11.14-19.13v-60.236c-.001-12.755-3.713-19.13-11.14-19.13zM397.428 336.043c-8.565 0-12.847 6.475-12.847 19.41v13.134h25.693v-13.134c0-12.942-4.284-19.41-12.846-19.41zM148.473 113.917v77.375h28.549v-77.375L211.563 0h-29.121l-19.41 75.089L142.759 0h-30.262c5.33 15.99 11.516 33.785 18.559 53.391 8.947 26.265 14.749 46.444 17.417 60.526zM249.82 193.291c13.134 0 23.219-4.854 30.262-14.561 5.332-7.043 7.994-18.274 7.994-33.689V95.075c0-15.225-2.669-26.363-7.994-33.406-7.043-9.707-17.128-14.561-30.262-14.561-12.756 0-22.75 4.854-29.98 14.561-5.327 7.043-7.992 18.181-7.992 33.406v49.965c0 15.225 2.662 26.457 7.992 33.689 7.233 9.708 17.223 14.562 29.98 14.562zM237.541 89.935c0-13.134 4.093-19.701 12.279-19.701s12.275 6.567 12.275 19.701v59.955c0 13.328-4.089 19.985-12.275 19.985s-12.279-6.661-12.279-19.985V89.935zM328.328 193.291c9.523 0 19.328-5.901 29.413-17.705v15.703h25.981V48.822h-25.981v108.777c-5.712 8.186-11.133 12.275-16.279 12.275-3.429 0-5.428-2.093-5.996-6.28-.191-.381-.287-3.715-.287-9.994V48.822h-25.981v112.492c0 9.705.767 16.84 2.286 21.411 2.477 7.043 8.09 10.566 16.844 10.566z"/></symbol></svg>